<svg width="134" height="28" viewBox="0 0 134 28" fill="none" xmlns="http://www.w3.org/2000/svg">
<path d="M41.0572 19.5244L38.5738 13.0816L36.102 19.5244H41.0572ZM32.4 24.3046L37.548 11.3524H39.6111L44.7592 24.3046H42.8581L41.6279 20.9795H35.5544L34.3242 24.3046H32.4ZM48.2568 22.8494V27.9999H46.5947V14.5886H48.2568V16.0549C48.6077 15.4773 49.0473 15.0515 49.5794 14.7737C50.1193 14.4886 50.7556 14.3479 51.4921 14.3479C52.7223 14.3479 53.721 14.8182 54.4884 15.7587C55.2635 16.6918 55.6491 17.9248 55.6491 19.4577C55.6491 20.9832 55.2635 22.2126 54.4884 23.1568C53.721 24.0898 52.7223 24.5564 51.4921 24.5564C50.7556 24.5564 50.1193 24.4194 49.5794 24.1417C49.0473 23.8566 48.6077 23.4233 48.2568 22.8494ZM53.9177 19.4577C53.9177 18.2839 53.6632 17.362 53.1542 16.6918C52.6606 16.0216 51.9742 15.6846 51.0911 15.6846C50.2119 15.6846 49.5139 16.0216 49.0049 16.6918C48.5036 17.362 48.2529 18.2839 48.2529 19.4577C48.2529 20.6315 48.5036 21.5535 49.0049 22.2237C49.5139 22.8865 50.208 23.2197 51.0911 23.2197C51.9703 23.2197 52.6606 22.8865 53.1542 22.2237C53.6632 21.5535 53.9177 20.6315 53.9177 19.4577ZM60.0144 22.8494V27.9999H58.3408V14.5886H60.0144V16.0549C60.3653 15.4773 60.801 15.0515 61.3255 14.7737C61.8654 14.4886 62.5055 14.3479 63.2497 14.3479C64.4722 14.3479 65.4671 14.8182 66.2345 15.7587C67.0096 16.6918 67.3952 17.9248 67.3952 19.4577C67.3952 20.9832 67.0096 22.2126 66.2345 23.1568C65.4671 24.0898 64.4722 24.5564 63.2497 24.5564C62.5055 24.5564 61.8654 24.4194 61.3255 24.1417C60.801 23.8566 60.3614 23.4233 60.0144 22.8494ZM65.6637 19.4577C65.6637 18.2839 65.4092 17.362 64.9002 16.6918C64.4066 16.0216 63.7202 15.6846 62.8371 15.6846C61.9579 15.6846 61.2599 16.0216 60.7509 16.6918C60.2573 17.362 60.0105 18.2839 60.0105 19.4577C60.0105 20.6315 60.2573 21.5535 60.7509 22.2237C61.2599 22.8865 61.9541 23.2197 62.8371 23.2197C63.7163 23.2197 64.4066 22.8865 64.9002 22.2237C65.4092 21.5535 65.6637 20.6315 65.6637 19.4577ZM79.3572 22.4569V18.9801H76.384V17.536H81.1696V23.1049C80.4639 23.5863 79.685 23.9491 78.8327 24.1972C77.9882 24.4379 77.0859 24.5564 76.1218 24.5564C74.0086 24.5564 72.3581 23.9639 71.1666 22.7828C69.9827 21.6016 69.3889 19.9539 69.3889 17.8396C69.3889 15.7253 69.9827 14.0776 71.1666 12.8965C72.3581 11.7079 74.0125 11.1117 76.1218 11.1117C77.001 11.1117 77.834 11.2191 78.6168 11.4302C79.415 11.6338 80.1477 11.9411 80.8148 12.3484V14.2183C80.14 13.6629 79.4227 13.2482 78.6631 12.9705C77.9034 12.6928 77.1051 12.5558 76.2722 12.5558C74.6256 12.5558 73.3839 12.9964 72.5471 13.8777C71.7257 14.7663 71.317 16.0882 71.317 17.8359C71.317 19.5836 71.7257 20.9018 72.5471 21.783C73.3839 22.6643 74.6256 23.1049 76.2722 23.1049C76.9162 23.1049 77.4946 23.0531 78.0036 22.9531C78.505 22.8494 78.9561 22.6828 79.3572 22.4569ZM90.625 19.4133H88.9746C87.6288 19.4133 86.6994 19.5614 86.1827 19.8613C85.666 20.1538 85.4076 20.6574 85.4076 21.372C85.4076 21.9423 85.6004 22.394 85.9899 22.7272C86.3755 23.0568 86.9038 23.2197 87.5748 23.2197C88.5003 23.2197 89.2407 22.905 89.796 22.2792C90.3513 21.6534 90.6289 20.8166 90.6289 19.7724V19.4133H90.625ZM92.2871 18.7579V24.3046H90.625V22.8272C90.2471 23.4196 89.7728 23.8566 89.2137 24.1417C88.643 24.4194 87.9488 24.5564 87.1275 24.5564C86.094 24.5564 85.2688 24.2787 84.6556 23.7233C84.0463 23.1605 83.7456 22.4088 83.7456 21.4683C83.7456 20.3834 84.1235 19.5577 84.8831 18.9949C85.6505 18.4395 86.7881 18.1618 88.2997 18.1618H90.625V18.0099C90.625 17.2731 90.3744 16.7029 89.8731 16.303C89.3718 15.9031 88.6661 15.7031 87.756 15.7031C87.1776 15.7031 86.6184 15.7698 86.0709 15.8994C85.5233 16.029 84.995 16.2326 84.486 16.4992V15.0218C85.0952 14.796 85.6852 14.6293 86.2637 14.5183C86.8344 14.3998 87.3858 14.3442 87.9257 14.3442C89.3911 14.3442 90.4862 14.7071 91.2073 15.4365C91.9285 16.1734 92.2871 17.2768 92.2871 18.7579ZM95.7153 24.3046V10.8081H97.3773V24.3046H95.7153ZM100.856 24.3046V10.8081H102.518V24.3046H100.856ZM114.603 19.043V19.8317H106.96C107.029 20.924 107.369 21.7645 107.986 22.3459C108.607 22.9161 109.47 23.1975 110.573 23.1975C111.21 23.1975 111.827 23.1234 112.42 22.979C113.03 22.8272 113.624 22.6013 114.21 22.3014V23.8121C113.616 24.0528 113.007 24.238 112.374 24.3713C111.753 24.4934 111.117 24.5564 110.473 24.5564C108.861 24.5564 107.585 24.1047 106.632 23.2012C105.691 22.3051 105.221 21.0869 105.221 19.5466C105.221 17.9507 105.668 16.6881 106.567 15.7624C107.461 14.8219 108.672 14.3516 110.188 14.3516C111.549 14.3516 112.621 14.7737 113.411 15.6217C114.206 16.4585 114.603 17.5989 114.603 19.043ZM107.006 18.5839H112.941C112.926 17.71 112.667 17.0102 112.166 16.4844C111.672 15.966 111.017 15.7068 110.195 15.7068C109.27 15.7068 108.526 15.9586 107.963 16.4622C107.407 16.9658 107.091 17.673 107.006 18.5839ZM123.125 14.4368L123.137 16.0771C122.948 15.9734 122.744 15.8994 122.52 15.8475C122.296 15.7957 122.061 15.7698 121.803 15.7698C120.862 15.7698 120.137 16.066 119.628 16.6547C119.126 17.2398 118.876 18.0803 118.876 19.18V24.3009H117.214V14.5886H118.876V16.0993C119.227 15.5069 119.682 15.07 120.245 14.7849C120.808 14.4923 121.486 14.3479 122.285 14.3479C122.4 14.3479 122.528 14.359 122.67 14.3813C122.805 14.3887 122.959 14.4072 123.125 14.4368ZM133.537 14.5886L129.095 25.2007C128.624 26.3596 128.165 27.1187 127.718 27.4741C127.271 27.8259 126.673 27.9999 125.929 27.9999H124.595V26.667H125.574C126.029 26.667 126.388 26.5596 126.646 26.3485C126.897 26.1449 127.174 25.6524 127.479 24.8711L127.787 24.1491L123.684 14.5886H125.451L128.617 22.1792L131.771 14.5886H133.537Z" fill="white"/>
<path d="M32.2958 6.80194V0.11849H36.6919V0.873847H33.229V2.85482H36.5454V3.62128H33.229V6.03917H36.7845V6.80564H32.2958V6.80194ZM40.1587 3.2362L37.9953 0.11849H39.0095L40.741 2.60303L42.4724 0.11849H43.4866L41.2538 3.32507L43.6331 6.80194H42.6189L40.6715 3.95823L38.6894 6.80194H37.6753L40.1587 3.2362ZM46.9919 0.86274H45.808V3.3695H46.9919C47.4315 3.3695 47.7747 3.26212 48.0176 3.05106C48.2529 2.8326 48.3724 2.51786 48.3724 2.11056C48.3724 1.71807 48.2529 1.41075 48.0176 1.19228C47.7747 0.973822 47.4315 0.86274 46.9919 0.86274ZM44.8748 6.80194V0.11849H46.9919C47.7747 0.11849 48.3647 0.285114 48.7696 0.622064C49.1629 0.966419 49.3635 1.45888 49.3635 2.11056C49.3635 2.77335 49.1668 3.27322 48.7696 3.61017C48.3686 3.94712 47.7747 4.11375 46.9919 4.11375H45.808V6.80564H44.8748V6.80194ZM50.6283 6.80194V0.11849H51.5731V6.03547H54.9666V6.80194H50.6283ZM58.441 0.733147C57.7585 0.733147 57.2109 0.977526 56.8021 1.46629C56.4088 1.95505 56.2083 2.62155 56.2083 3.46947C56.2083 4.30629 56.4049 4.97648 56.8021 5.47265C57.2109 5.96141 57.7585 6.2058 58.441 6.2058C59.1236 6.2058 59.6634 5.96141 60.0568 5.47265C60.4578 4.97648 60.6622 4.31 60.6622 3.46947C60.6622 2.62525 60.4617 1.95505 60.0568 1.46629C59.6634 0.973824 59.1236 0.733147 58.441 0.733147ZM58.441 0C59.4128 0 60.1917 0.314736 60.7779 0.9405C61.364 1.56626 61.6532 2.41049 61.6532 3.46577C61.6532 4.52475 61.3602 5.36528 60.7779 5.99104C60.1917 6.6168 59.4128 6.93153 58.441 6.93153C57.4615 6.93153 56.6749 6.6168 56.081 5.99104C55.4949 5.36528 55.2056 4.52105 55.2056 3.46577C55.2056 2.40678 55.4987 1.56626 56.081 0.9405C56.6749 0.311033 57.4615 0 58.441 0ZM66.4272 3.66201C66.6316 3.72866 66.8283 3.86937 67.0211 4.08783C67.2101 4.29889 67.4029 4.59511 67.6034 4.97279L68.5597 6.79823H67.5456L66.6586 5.08016C66.4234 4.63583 66.1997 4.33961 65.9876 4.19521C65.7678 4.0508 65.4709 3.97675 65.1007 3.97675H64.075V6.79823H63.1302V0.11849H65.2588C66.057 0.11849 66.6509 0.27771 67.0481 0.599848C67.4337 0.914581 67.6304 1.39594 67.6304 2.04392C67.6304 2.46603 67.5263 2.81779 67.3219 3.09549C67.1098 3.3695 66.8167 3.56204 66.4272 3.66201ZM65.255 0.86274H64.0711V3.2362H65.255C65.71 3.2362 66.0532 3.13252 66.2807 2.92887C66.5159 2.72522 66.6355 2.429 66.6355 2.04392C66.6355 1.65142 66.5159 1.35521 66.2807 1.15896C66.0532 0.962715 65.71 0.86274 65.255 0.86274ZM69.7667 6.80194V0.11849H74.1628V0.873847H70.7115V2.85482H74.0279V3.62128H70.7115V6.03917H74.2554V6.80564H69.7667V6.80194ZM78.8327 6.80194V0.11849H79.7775V6.80194H78.8327ZM80.6914 0.873847V0.11849H86.5799V0.873847H84.108V6.80194H83.1632V0.873847H80.6914ZM93.3475 0.733147C92.665 0.733147 92.1212 0.977526 91.7202 1.46629C91.3192 1.95505 91.1148 2.62155 91.1148 3.46947C91.1148 4.30629 91.3153 4.97648 91.7202 5.47265C92.1212 5.96141 92.665 6.2058 93.3475 6.2058C94.0301 6.2058 94.5738 5.96141 94.9748 5.47265C95.3682 4.97648 95.5687 4.31 95.5687 3.46947C95.5687 2.62525 95.372 1.95505 94.9748 1.46629C94.5738 0.973824 94.0301 0.733147 93.3475 0.733147ZM93.3475 0C94.327 0 95.1098 0.314736 95.696 0.9405C96.2821 1.56626 96.5713 2.41049 96.5713 3.46577C96.5713 4.52475 96.2783 5.36528 95.696 5.99104C95.1137 6.6168 94.327 6.93153 93.3475 6.93153C92.368 6.93153 91.5852 6.6168 90.9991 5.99104C90.4129 5.36528 90.1237 4.52105 90.1237 3.46577C90.1237 2.40678 90.4168 1.56626 90.9991 0.9405C91.5852 0.311033 92.368 0 93.3475 0ZM98.0405 6.80194V0.11849H99.3054L102.394 5.70963V0.11849H103.316V6.80194H102.039L98.9506 1.2108V6.80194H98.0405Z" fill="white"/>
<path fill-rule="evenodd" clip-rule="evenodd" d="M7.98623 0.140625H20.3801C26.2262 0.140625 28.3548 2.18454 28.3548 7.79789V19.6985C28.3548 25.3119 26.2146 27.3669 20.3801 27.3669H7.98623C2.1402 27.3669 0 25.3119 0 19.6985V7.79789C0 2.18454 2.1402 0.140625 7.98623 0.140625ZM11.7576 17.3028L12.1008 16.5697H13.7898L14.1215 17.3028H14.9081L13.2808 13.7482H12.6214L10.9941 17.3028H11.7576ZM13.5083 15.9254H12.3708L12.9376 14.6554L13.5083 15.9254ZM25.2004 13.7482H24.4484V17.3028H25.2004V13.7482ZM23.5615 16.6586H21.4984V15.781H22.8674V15.1256H21.4984V14.4036H23.4805V13.7482H20.758V17.3028H23.5615V16.6586ZM20.1526 13.7482H19.3659L18.5484 16.1994L17.7039 13.7482H17.0869L16.254 16.1994L15.4326 13.7482H14.6228L15.9223 17.3139H16.5393L17.3838 14.9738L18.2284 17.3139H18.8646L20.1526 13.7482ZM10.6085 13.7482H9.8565V15.7884C9.8565 16.366 9.55957 16.6845 9.01199 16.6845C8.4644 16.6845 8.16747 16.366 8.16747 15.7662V13.7519H7.41551V15.7847C7.41551 16.7882 7.9978 17.3695 9.00042 17.3695C10.0262 17.3695 10.6085 16.7808 10.6085 15.7625V13.7482ZM6.37047 13.7482H5.61851V15.1812H3.92178V13.7482H3.16981V17.3139H3.92178V15.8588H5.61851V17.3139H6.37047V13.7482ZM9.46702 4.69129C9.46702 7.18694 11.5725 9.21975 14.1832 9.21975C16.7823 9.21975 18.8993 7.18324 18.8993 4.69129H18.2399C18.2399 6.83518 16.4159 8.57547 14.1832 8.57547C11.9504 8.57547 10.1264 6.83518 10.1264 4.69129H9.46702Z" fill="#C8102E"/>
</svg>
