<svg width="122" height="34" viewBox="0 0 122 34" fill="none" xmlns="http://www.w3.org/2000/svg">
<path d="M62.049 0.37117C62.4323 0.369737 62.8155 0.369736 63.1988 0.369736C63.1859 2.98239 63.183 5.59648 63.2003 8.20913C62.8155 8.2077 62.4323 8.2077 62.049 8.2077C62.0576 5.59505 62.0576 2.98382 62.049 0.37117Z" fill="white"/>
<path d="M81.7429 0.371181C82.1204 0.371181 82.4979 0.36975 82.8755 0.368317C82.9473 2.98097 82.8439 5.59649 82.9372 8.20771C82.5927 8.20771 82.251 8.20771 81.9094 8.20485C81.8878 7.95404 81.872 7.70324 81.8247 7.45817C81.2849 8.12745 80.3762 8.48431 79.5322 8.26217C78.668 8.08016 78.0895 7.26612 77.9172 6.44349C77.6689 5.34712 77.8828 4.06157 78.7311 3.2676C79.2278 2.78176 79.9772 2.63558 80.6433 2.77603C81.071 2.83765 81.384 3.16155 81.7443 3.36792C81.7457 2.36901 81.7457 1.3701 81.7429 0.371181ZM79.8049 3.77208C78.7498 4.4084 78.6881 6.01497 79.3958 6.93363C79.7446 7.40658 80.4093 7.52123 80.9418 7.32632C81.4787 7.06691 81.7673 6.45352 81.7457 5.87452C81.7371 5.28979 81.8333 4.64057 81.4658 4.13753C81.1241 3.5915 80.3461 3.48401 79.8049 3.77208Z" fill="white"/>
<path d="M109.519 8.20913C109.536 5.59648 109.533 2.98239 109.52 0.369736C109.902 0.369736 110.285 0.369737 110.67 0.37117C110.671 1.43314 110.637 2.49512 110.689 3.55566C111.175 2.99959 111.881 2.58111 112.649 2.75308C113.613 2.84624 114.085 3.86092 114.161 4.71795C114.218 5.88024 114.163 7.04684 114.188 8.21056C113.802 8.2077 113.417 8.2077 113.034 8.2077C113.033 7.08983 113.047 5.97053 113.028 4.85267C113.027 4.39262 112.777 3.89102 112.316 3.7477C111.917 3.65741 111.449 3.66314 111.121 3.93688C110.762 4.22208 110.65 4.70505 110.663 5.1436C110.667 6.16401 110.658 7.18585 110.67 8.2077C110.285 8.2077 109.9 8.2077 109.519 8.20913Z" fill="white"/>
<path d="M31.7855 0.894292C33.2741 0.654954 34.9034 0.534569 36.2858 1.25258C37.2462 1.74846 37.7716 2.809 37.8405 3.85521C37.961 5.17658 37.5849 6.6857 36.4394 7.47538C35.0871 8.4055 33.333 8.33384 31.7797 8.11886C31.7984 5.70972 31.7883 3.302 31.7855 0.894292ZM32.8808 1.7198C32.8521 3.56571 32.8549 5.41592 32.8793 7.26327C34.1225 7.57283 35.7963 7.24607 36.3648 5.93903C36.7653 4.91575 36.8069 3.67749 36.2758 2.69291C35.5853 1.57361 33.9947 1.48476 32.8808 1.7198Z" fill="white"/>
<path d="M105.334 1.85738C105.716 1.74559 106.101 1.6424 106.48 1.51628C106.475 1.9534 106.472 2.39051 106.485 2.82906C106.919 2.83479 107.355 2.83193 107.792 2.8305C107.792 3.10853 107.793 3.388 107.799 3.66746C107.361 3.72049 106.923 3.69326 106.487 3.65743C106.471 4.58612 106.471 5.51624 106.482 6.44636C106.474 6.78745 106.58 7.17728 106.92 7.32919C107.171 7.37505 107.431 7.34495 107.687 7.34209C107.7 7.62299 107.718 7.90389 107.737 8.18479C107.189 8.32524 106.571 8.42843 106.056 8.1332C105.554 7.8566 105.387 7.2432 105.363 6.71007C105.291 5.71402 105.311 4.71081 105.363 3.71333C105.087 3.70186 104.814 3.68896 104.542 3.66603C104.543 3.38799 104.545 3.11283 104.547 2.83623C104.819 2.83193 105.091 2.82763 105.366 2.81903C105.343 2.498 105.323 2.17697 105.334 1.85738Z" fill="white"/>
<path d="M56.2783 3.56284C56.8108 2.98384 57.5803 2.58255 58.3842 2.75883C59.3101 2.89642 59.7809 3.87383 59.8369 4.72083C59.8757 5.88169 59.834 7.04542 59.8584 8.20771C59.478 8.20771 59.0991 8.20771 58.7201 8.20771C58.7373 7.14287 58.7287 6.0766 58.7273 5.01033C58.7301 4.57751 58.588 4.09167 58.2018 3.84947C57.5142 3.42812 56.4232 3.84947 56.3831 4.70936C56.3429 5.87309 56.3773 7.03969 56.3673 8.20485C55.9854 8.20772 55.605 8.20771 55.2246 8.21201C55.17 6.41913 55.2476 4.62481 55.1657 2.83192C55.5002 2.83192 55.8361 2.83192 56.172 2.83049C56.1936 3.07556 56.2295 3.3192 56.2783 3.56284Z" fill="white"/>
<path d="M72.1062 3.14434C72.9489 2.74306 73.948 2.56821 74.8481 2.87777C75.4007 3.05835 75.7898 3.56712 75.9003 4.12606C76.1214 5.47753 75.9046 6.85337 76.0926 8.20914C75.7553 8.20771 75.4208 8.2077 75.0863 8.20627C75.0433 8.01279 74.9945 7.82218 74.9371 7.63444C74.2695 8.33526 73.1068 8.58463 72.2928 7.9913C71.5062 7.42806 71.509 6.14538 72.2196 5.51909C72.9331 4.88133 73.9422 4.78388 74.8581 4.78818C74.8581 4.374 74.7935 3.87812 74.3959 3.65311C73.7183 3.34785 72.9359 3.55853 72.2971 3.86952C72.2354 3.62589 72.1737 3.38368 72.1062 3.14434ZM73.2388 5.82435C72.7465 6.14395 72.6776 6.95655 73.1297 7.33777C73.5963 7.67027 74.2868 7.49829 74.6413 7.07694C75.0318 6.64986 74.8481 6.0207 74.8883 5.50046C74.327 5.47323 73.7212 5.50763 73.2388 5.82435Z" fill="white"/>
<path d="M97.1172 2.85054C97.7976 2.61264 98.6632 2.69147 99.1484 3.27476C99.5963 3.83513 99.7226 4.58897 99.7155 5.28979C99.7025 6.26434 99.7313 7.23889 99.6939 8.212C99.3121 8.20771 98.9302 8.20771 98.5513 8.20484C98.5484 7.08697 98.5584 5.96911 98.5484 4.85267C98.5699 4.3482 98.2383 3.79213 97.7115 3.71761C97.3454 3.67318 96.9277 3.68465 96.6392 3.94405C96.2889 4.23068 96.1784 4.70649 96.1884 5.1393C96.1941 6.16258 96.1784 7.18586 96.1985 8.20771C95.818 8.20771 95.4391 8.20771 95.0601 8.20771C95.0644 6.41482 95.0931 4.62193 95.0228 2.83191C95.3558 2.83191 95.6917 2.83192 96.0276 2.83048C96.0391 3.09992 96.052 3.37079 96.0707 3.64165C96.4009 3.35645 96.6894 2.99529 97.1172 2.85054Z" fill="white"/>
<path d="M116.726 3.50839C117.543 2.53097 119.263 2.42205 120.108 3.41667C120.641 4.06589 120.842 4.98884 120.647 5.79858C119.438 5.82438 118.229 5.79715 117.021 5.81148C117.069 6.41197 117.359 7.04973 117.959 7.27474C118.699 7.52697 119.518 7.41232 120.261 7.22171C120.315 7.47395 120.37 7.72618 120.433 7.97985C119.391 8.29945 118.173 8.427 117.168 7.92826C115.661 7.03827 115.641 4.73804 116.726 3.50839ZM117.048 4.98598C117.915 4.99601 118.785 5.00604 119.653 4.98025C119.632 4.57179 119.547 4.13611 119.247 3.83658C118.923 3.48976 118.383 3.47399 117.957 3.59725C117.391 3.81509 117.133 4.42704 117.048 4.98598Z" fill="white"/>
<path d="M41.0474 2.91505C42.1398 2.49227 43.4993 2.88353 44.1395 3.87957C45.0424 5.30844 44.5472 7.61152 42.8361 8.17476C41.8312 8.55598 40.5809 8.24928 39.932 7.37505C38.8798 5.98059 39.2946 3.53561 41.0474 2.91505ZM41.491 3.64453C40.7201 3.99996 40.4574 4.93295 40.5019 5.71688C40.5335 6.4134 40.8292 7.22314 41.547 7.47251C42.2575 7.73048 42.9897 7.18158 43.2122 6.51946C43.505 5.67246 43.4835 4.58469 42.8203 3.9111C42.4901 3.54278 41.9374 3.50838 41.491 3.64453Z" fill="white"/>
<path d="M45.865 2.83336C46.2397 2.83192 46.6158 2.83192 46.9904 2.82906C47.2503 3.98132 47.5259 5.13071 47.7728 6.28728C47.8144 6.51945 47.9034 6.73729 48.014 6.94653C48.5623 5.61942 48.8609 4.20059 49.293 2.83192C49.5959 2.83192 49.8988 2.83192 50.2031 2.83049C50.5878 4.17193 50.9036 5.5363 51.3085 6.86914L51.4735 6.95513C51.8123 5.57643 52.154 4.19773 52.5301 2.82906C52.8789 2.83192 53.2292 2.83192 53.5794 2.83192C53.0282 4.62337 52.4856 6.41769 51.9329 8.20771C51.5697 8.20771 51.208 8.20771 50.8462 8.20771C50.5003 6.96516 50.1859 5.71258 49.8198 4.47719C49.7782 4.43993 49.6949 4.36397 49.6533 4.32671C49.2901 5.62372 48.914 6.91643 48.5451 8.21201C48.1805 8.20771 47.8159 8.20771 47.4512 8.20628C46.933 6.41196 46.4047 4.62051 45.865 2.83336Z" fill="white"/>
<path d="M66.736 2.90645C67.6676 2.56679 68.7873 2.78033 69.4907 3.49118C70.3664 4.37974 70.4252 5.8387 69.9257 6.92934C69.4218 7.94545 68.2045 8.52588 67.0963 8.28367C66.2637 8.14179 65.5287 7.5327 65.2445 6.73872C65.0047 6.07087 64.9861 5.32849 65.1569 4.64344C65.3521 3.84804 65.9723 3.18878 66.736 2.90645ZM67.1752 3.64166C66.4445 3.96412 66.1388 4.82688 66.1704 5.57786C66.146 6.3317 66.4733 7.24177 67.2599 7.48397C67.9317 7.70611 68.6165 7.19734 68.8476 6.58394C69.1792 5.75844 69.1519 4.71223 68.5763 3.99995C68.2519 3.57574 67.6604 3.48545 67.1752 3.64166Z" fill="white"/>
<path d="M89.7028 2.90647C90.9345 2.4321 92.4891 3.02829 92.9844 4.27514C93.3849 5.36864 93.2729 6.76168 92.3944 7.60151C91.5603 8.44278 90.1377 8.57033 89.153 7.92254C87.4203 6.77028 87.6687 3.60442 89.7028 2.90647ZM90.142 3.64312C89.4099 3.96558 89.1056 4.83264 89.1386 5.58362C89.12 6.30163 89.4056 7.14576 90.1176 7.4453C90.7636 7.73623 91.5015 7.29338 91.7685 6.68859C92.146 5.87168 92.136 4.82691 91.6091 4.07593C91.2905 3.61016 90.6603 3.45251 90.142 3.64312Z" fill="white"/>
<path d="M77.3229 13.6179C78.9049 13.38 80.5787 13.5262 82.0386 14.2084C81.9036 14.8547 81.6295 15.4667 81.4644 16.1073C80.3562 15.5756 79.0915 15.3262 77.8684 15.4968C77.0372 15.5957 76.1788 16.1102 75.942 16.9557C75.8228 17.5347 75.8687 18.1969 76.2649 18.6684C76.9439 19.5096 78.0148 19.8393 78.9651 20.2678C80.049 20.7207 81.1299 21.3083 81.8721 22.2427C82.8367 23.511 82.8712 25.3283 82.162 26.7242C81.6625 27.693 80.7251 28.3752 79.7087 28.7277C78.1584 29.2494 76.4587 29.2308 74.8782 28.8567C74.3155 28.7349 73.7887 28.5013 73.2891 28.2218C73.3839 27.5425 73.6437 26.9019 73.8117 26.2398C74.9759 26.9707 76.3913 27.2702 77.7579 27.1785C78.6091 27.0982 79.5207 26.76 79.9743 25.9904C80.4366 25.1506 80.3246 24.0126 79.6542 23.3118C78.8517 22.4576 77.6631 22.1982 76.6296 21.7353C75.5228 21.2137 74.406 20.5014 73.8533 19.3663C73.2475 18.1725 73.3997 16.6834 74.1174 15.5727C74.8337 14.4893 76.0697 13.8529 77.3229 13.6179Z" fill="white"/>
<path d="M30.2983 28.8883C31.9793 23.845 33.5713 18.7716 35.2365 13.7211C36.2256 13.7268 37.2161 13.7254 38.2066 13.7225C39.8459 18.7873 41.5054 23.8478 43.1175 28.9212C42.2634 28.9083 41.4049 28.9671 40.5522 28.8854C40.1201 27.392 39.6349 25.913 39.1899 24.424C37.4974 24.4311 35.8035 24.3996 34.1125 24.4397C33.6991 25.9345 33.1995 27.4049 32.7631 28.8926C31.9434 28.9398 31.118 28.9485 30.2983 28.8883ZM36.171 17.3097C35.6284 19.0654 35.1317 20.8339 34.5733 22.5838C35.9571 22.6397 37.3438 22.611 38.7277 22.5981C38.0573 20.3652 37.3797 18.1309 36.6634 15.9124C36.395 16.3366 36.3203 16.8397 36.171 17.3097Z" fill="white"/>
<path d="M85.7062 15.9683C86.4785 15.7132 87.258 15.4753 88.0346 15.2302C88.1007 16.1417 88.0504 17.0589 88.0691 17.9733C88.9649 17.9847 89.8621 17.979 90.7578 17.9761C90.7478 18.5566 90.7463 19.137 90.7607 19.7174C89.8506 19.7891 88.9376 19.7346 88.0275 19.7547C88.1208 21.6694 88.0303 23.5884 88.0777 25.5045C88.0806 26.0907 88.2873 26.7485 88.8342 27.0466C89.374 27.3103 90.0042 27.1842 90.5741 27.0968C90.5841 27.6815 90.6057 28.2677 90.6516 28.851C89.4759 29.1749 88.115 29.3282 87.0126 28.7005C86.0292 28.0928 85.7766 26.8546 85.7335 25.7826C85.689 23.7733 85.7378 21.7626 85.7077 19.7518C85.1737 19.7518 84.6382 19.7633 84.1071 19.7217C84.0654 19.1399 84.0611 18.5551 84.1071 17.9747C84.6425 17.9819 85.178 17.9804 85.7134 17.9761C85.7163 17.3068 85.7249 16.6376 85.7062 15.9683Z" fill="white"/>
<path d="M48.2609 18.8504C49.537 17.6838 51.5396 17.4101 53.0971 18.1481C54.0043 18.5709 54.6934 19.3663 55.1269 20.2549C55.9136 21.9059 56.0126 23.8593 55.4485 25.592C55.0666 26.8159 54.2886 27.9596 53.1445 28.5844C51.4692 29.483 49.1164 29.3139 47.8618 27.7833L47.7412 27.6629C47.7311 29.559 47.7441 31.4565 47.7355 33.3525C46.9373 33.4242 46.1349 33.3798 45.3353 33.3912C45.318 29.4243 45.3324 25.4587 45.3281 21.4931C45.3425 20.3194 45.2807 19.147 45.2161 17.9762C45.9224 17.9805 46.6287 17.9819 47.3349 17.9747C47.3637 18.5609 47.3881 19.147 47.4641 19.7289C47.7498 19.4537 47.968 19.1184 48.2609 18.8504ZM49.6806 19.7146C48.3685 20.0657 47.7082 21.5075 47.7527 22.7744C47.8 23.8707 47.5646 25.0603 48.1575 26.0549C48.8724 27.4623 50.9567 27.7088 52.1123 26.7141C53.0856 25.9044 53.4187 24.5744 53.423 23.3591C53.3856 22.1538 53.0095 20.8382 51.9918 20.0972C51.3415 19.5899 50.4586 19.5541 49.6806 19.7146Z" fill="white"/>
<path d="M61.4776 18.4405C62.9591 17.4903 65.0492 17.4817 66.4675 18.5623C67.4422 19.2975 68.0121 20.4441 68.2992 21.6078C68.6308 23.1255 68.5404 24.7579 67.9145 26.191C67.4235 27.3619 66.4991 28.3938 65.286 28.8338C64.0515 29.2752 62.5988 29.2523 61.4575 28.5658C61.0671 28.3365 60.7771 27.9853 60.4641 27.6686C60.3737 29.5733 60.4555 31.4851 60.4225 33.3927C59.6272 33.3898 58.8334 33.3912 58.0381 33.3912C58.031 29.3268 58.0367 25.2623 58.0353 21.1979C58.0554 20.123 57.9405 19.0524 57.9104 17.979C58.6138 17.979 59.3157 17.9819 60.0206 17.9761C60.0737 18.558 60.1038 19.1413 60.134 19.726C60.5862 19.3004 60.9321 18.7615 61.4776 18.4405ZM62.3318 19.7232C61.0398 20.0929 60.4039 21.5246 60.4254 22.7758C60.4613 23.8722 60.2517 25.056 60.8417 26.0506C61.5451 27.445 63.6065 27.7202 64.7592 26.7328C65.7411 25.9202 66.0698 24.5787 66.0741 23.3562C66.0354 22.1223 65.642 20.7522 64.5654 20.0284C63.9237 19.567 63.0753 19.5641 62.3318 19.7232Z" fill="white"/>
<path d="M96.4482 17.8185C98.1177 17.4559 99.9681 17.926 101.221 19.0983C102.955 20.725 103.286 23.4279 102.555 25.6063C102.045 27.1527 100.765 28.4225 99.2001 28.8897C97.5507 29.4371 95.6372 29.1548 94.2462 28.1057C93.1178 27.2573 92.4317 25.9101 92.2637 24.5228C92.0728 23.0366 92.291 21.4559 93.0777 20.1603C93.8055 18.9478 95.0687 18.1051 96.4482 17.8185ZM97.1689 19.5283C96.0922 19.6873 95.2711 20.5859 94.9065 21.5676C94.5117 22.7027 94.4974 23.9553 94.8031 25.1133C95.0371 25.9488 95.5611 26.7285 96.3291 27.1584C97.1588 27.6228 98.2556 27.5296 99.0078 26.9492C99.9078 26.2813 100.343 25.1592 100.43 24.0728C100.528 22.803 100.373 21.4014 99.4987 20.4097C98.936 19.7432 98.0359 19.3778 97.1689 19.5283Z" fill="white"/>
<path d="M108.407 18.4219C109.074 17.8486 109.999 17.6351 110.859 17.7884C110.842 18.5308 110.845 19.2746 110.856 20.0184C110.053 19.8866 109.138 19.9568 108.509 20.5257C107.81 21.1592 107.504 22.1409 107.51 23.0653C107.515 25.0072 107.503 26.9506 107.516 28.8925C106.716 28.9413 105.913 28.9456 105.114 28.8911C105.093 25.2523 105.196 21.6121 105.038 17.9761C105.726 17.9804 106.415 17.9819 107.104 17.9761C107.18 18.6368 107.114 19.319 107.286 19.9654C107.641 19.4394 107.894 18.8231 108.407 18.4219Z" fill="white"/>
<path d="M114.605 18.4548C116.354 17.4072 118.861 17.4559 120.377 18.9034C121.673 20.2233 121.917 22.2083 121.761 23.9711C119.303 23.9711 116.844 23.9553 114.388 23.9797C114.394 25.023 114.804 26.1351 115.706 26.7299C116.637 27.3648 117.827 27.3734 118.91 27.2602C119.569 27.1971 120.216 27.0509 120.835 26.8116C120.948 27.3591 121.06 27.9065 121.181 28.4526C119.597 29.0416 117.85 29.3039 116.178 28.9943C114.843 28.7578 113.608 27.9509 112.932 26.7686C112.154 25.4529 112.003 23.855 112.222 22.3659C112.477 20.831 113.248 19.2961 114.605 18.4548ZM115.444 19.994C114.836 20.6089 114.465 21.4602 114.412 22.3201C116.113 22.3158 117.814 22.3258 119.515 22.3158C119.531 21.6135 119.386 20.8855 119.004 20.2878C118.244 19.1284 116.4 19.0281 115.444 19.994Z" fill="white"/>
<path d="M11.9023 6.65561C11.6224 3.36794 14.4417 0.227877 17.7018 3.8147e-06C17.9989 3.26618 15.3188 6.7287 11.9023 6.65561Z" fill="white"/>
<path d="M15.8385 7.21311C18.4899 6.52949 21.4011 7.74052 23.0261 9.88883C21.4973 10.8404 20.3058 12.384 19.9469 14.1654C19.6125 15.8307 19.9455 17.6265 20.8886 19.0453C21.5604 20.1316 22.6041 20.9557 23.7711 21.463C23.2012 23.084 22.4476 24.6461 21.4786 26.0678C20.6345 27.2688 19.6096 28.4683 18.1841 28.9742C17.0213 29.3626 15.8012 28.9327 14.7346 28.4612C13.7326 28.0327 12.6057 27.8893 11.5291 28.0671C10.0993 28.2605 8.87767 29.2781 7.39191 29.1864C6.01095 28.9843 4.97164 27.9309 4.10171 26.922C2.16377 24.5128 0.899081 21.5978 0.270326 18.5824C-0.193345 16.1704 -0.118698 13.5749 0.953631 11.3277C1.69723 9.74264 2.97914 8.37397 4.60702 7.68462C6.17747 6.98667 8.02354 6.95944 9.60978 7.6273C10.5615 7.95263 11.509 8.57032 12.5569 8.34244C13.6723 8.03002 14.7044 7.46678 15.8385 7.21311Z" fill="white"/>
</svg>
