<svg width="135" height="35" viewBox="0 0 135 35" fill="none" xmlns="http://www.w3.org/2000/svg">
<path d="M60.6988 0.0997642C61.4999 -0.123809 62.3597 0.0496036 63.0933 0.409327C64.2948 1.02845 65.0212 2.40286 64.9164 3.74C64.8719 4.74464 64.3594 5.72923 63.5383 6.31826C62.2793 7.25841 60.3701 7.18245 59.1873 6.14484C58.0374 5.18032 57.6857 3.44047 58.303 2.08469C58.7265 1.09295 59.6409 0.324771 60.6988 0.0997642ZM60.9702 0.77765C60.383 0.908068 59.8418 1.23913 59.4686 1.71207C58.58 2.80557 58.6461 4.56836 59.6854 5.54292C60.5869 6.44294 62.1746 6.47447 63.1378 5.65327C64.167 4.8421 64.4297 3.27422 63.7852 2.14919C63.2627 1.1603 62.0798 0.546911 60.9702 0.77765Z" fill="#FEFEFE"/>
<path d="M36.7516 0.190071C38.0479 0.121279 39.3484 0.162841 40.6461 0.165707C40.6519 0.412211 40.6533 0.658715 40.6591 0.905219C39.6226 0.90092 38.5847 0.900919 37.5469 0.903786C37.5325 1.6476 37.5383 2.39141 37.5426 3.13522C38.4857 3.16675 39.4317 3.09652 40.3734 3.18395C40.3705 3.42185 40.3605 3.65832 40.3418 3.8948C39.4102 3.88906 38.4785 3.88906 37.5469 3.8948C37.5296 4.61998 37.544 5.34372 37.5354 6.0689C38.5776 6.07893 39.6212 6.07463 40.6634 6.07177C40.6548 6.34407 40.649 6.61637 40.6418 6.88867C39.347 6.88437 38.0536 6.88724 36.7588 6.8858C36.7487 4.65437 36.7631 2.4215 36.7516 0.190071Z" fill="#FEFEFE"/>
<path d="M66.0361 0.191458C66.3691 0.172826 66.7194 0.102602 67.0467 0.198624C67.3553 0.562647 67.5606 1.00406 67.8262 1.40105C68.6344 2.72816 69.4914 4.02517 70.2637 5.37234C70.3125 5.38524 70.4101 5.4096 70.4603 5.4225C70.3383 3.68837 70.4 1.94995 70.3742 0.214388C70.6455 0.139864 70.9269 0.164227 71.2039 0.191458C71.1766 2.42432 71.2154 4.65862 71.1838 6.89149C70.8594 6.8313 70.3728 7.05057 70.1991 6.66505C69.2114 5.06851 68.2195 3.47483 67.2362 1.87686C67.1357 1.70488 67.0079 1.5501 66.8299 1.45551C66.8141 3.25269 66.8256 5.05131 66.8242 6.84993C66.5629 6.86713 66.3031 6.88289 66.0433 6.89722C66.0318 4.66149 66.049 2.42576 66.0361 0.191458Z" fill="#FEFEFE"/>
<path d="M29.6659 1.20622C30.8818 -0.277105 33.3925 -0.41039 34.7232 0.988377C34.5466 1.16466 34.3715 1.34093 34.1978 1.52008C33.6093 0.933917 32.7523 0.637252 31.9268 0.757638C30.9435 0.923884 30.0894 1.66626 29.775 2.61072C29.4176 3.61966 29.7032 4.82495 30.5071 5.54153C31.4086 6.40716 32.936 6.48169 33.9366 5.74218C34.4605 5.35236 34.7936 4.72606 34.7878 4.06824C33.9681 4.05248 33.1485 4.06394 32.3288 4.05964C32.3288 3.81314 32.3288 3.56664 32.3288 3.32013C33.4212 3.31583 34.5122 3.32013 35.6046 3.31727C35.6577 4.24022 35.4927 5.23197 34.8553 5.94139C34.0012 6.9016 32.5786 7.14524 31.367 6.86577C30.3291 6.62357 29.4348 5.8382 29.0687 4.83785C28.6237 3.63686 28.8161 2.1865 29.6659 1.20622Z" fill="white"/>
<path d="M41.4615 0.191465C42.9861 0.132705 44.5163 0.137005 46.0423 0.188599C46.0394 0.427937 46.0365 0.667275 46.038 0.90518C45.4092 0.90088 44.7805 0.899447 44.1531 0.90518C44.1373 2.88438 44.146 4.86357 44.1488 6.84277C43.8847 6.86427 43.6206 6.8829 43.3579 6.9001C43.3449 4.90084 43.3636 2.90301 43.3492 0.903746C42.7219 0.90088 42.0946 0.90088 41.4687 0.90518C41.4673 0.667275 41.4644 0.429369 41.4615 0.191465Z" fill="white"/>
<path d="M49.0913 0.185733C49.3569 0.161369 49.6253 0.159936 49.8909 0.190033C49.8837 2.41 49.8851 4.62854 49.8909 6.84707C49.6268 6.8657 49.3626 6.8829 49.0999 6.89866C49.0884 4.6615 49.1057 2.4229 49.0913 0.185733Z" fill="white"/>
<path d="M50.9201 0.178575C52.4274 0.132713 53.9405 0.155644 55.4492 0.169976C55.4549 0.415047 55.4535 0.66155 55.4521 0.908054C54.8319 0.899455 54.2103 0.899455 53.5902 0.906621C53.56 2.88725 53.6031 4.86931 53.5687 6.84994C53.3002 6.86858 53.0318 6.88147 52.7662 6.89007C52.7519 4.89511 52.759 2.90015 52.7619 0.903755C52.1245 0.899455 51.4872 0.905188 50.8498 0.899455C50.8685 0.660117 50.8283 0.406447 50.9201 0.178575Z" fill="white"/>
<path d="M0.0856934 10.0531C0.101484 9.60736 0.437394 9.17884 0.859436 9.04126C1.54705 9.61166 2.11695 10.3053 2.76149 10.9216C2.02507 11.5737 0.997246 10.87 0.196229 11.4017C0.166083 10.9517 0.121581 10.5031 0.0856934 10.0531Z" fill="#00A6C0"/>
<path d="M0.859436 9.04127C1.54848 8.81053 2.16432 9.33077 2.74427 9.62743C3.25675 9.89113 3.75631 10.1778 4.27166 10.4343C4.27166 10.4458 4.27166 10.4687 4.27166 10.4802C4.27596 11.062 4.2573 11.6468 4.10226 12.2114C3.63716 11.8015 3.19645 11.363 2.76149 10.9216C2.11695 10.3053 1.54705 9.61166 0.859436 9.04127Z" fill="#00D3B3"/>
<path d="M0.0742473 9.9341L0.0857306 10.0531C0.121618 10.5031 0.16612 10.9516 0.196266 11.4017C0.997283 10.87 2.02511 11.5736 2.76153 10.9216C3.19649 11.363 3.63719 11.8015 4.1023 12.2114C4.40806 12.4923 4.70235 12.7861 4.98945 13.0885C5.55648 13.7134 6.12781 14.3339 6.73647 14.9201C6.96759 15.1465 7.20014 15.3715 7.42982 15.6008C6.78097 15.5177 6.14216 15.7828 5.49618 15.6424C4.59181 15.4632 3.67882 15.694 2.76871 15.6424C2.01363 15.598 1.25711 15.575 0.500594 15.6094C0.407286 15.747 0.312542 15.8832 0.219233 16.0207C0.246508 15.2884 0.199137 14.5532 0.0369236 13.8366C0.0168264 12.5382 -0.0319808 11.2297 0.0742473 9.9341Z" fill="#00BFC6"/>
<path d="M4.10226 12.2114C4.2573 11.6468 4.27596 11.062 4.27166 10.4802C4.52287 10.5977 4.77265 10.7224 5.02099 10.8499C5.01238 11.1896 5.01956 11.5307 5.04396 11.8718C4.98367 11.9148 4.92481 11.9592 4.86452 12.0036C4.96357 12.3562 5.01956 12.7216 4.98941 13.0885C4.70231 12.7861 4.40803 12.4923 4.10226 12.2114Z" fill="#24D8B1"/>
<path d="M5.04397 11.8718C5.01957 11.5307 5.01239 11.1896 5.021 10.8499C5.47893 11.1194 5.96414 11.3415 6.41776 11.6224C6.6618 11.8761 6.92163 12.1928 6.82545 12.5711C6.68189 13.3494 6.86851 14.139 6.73644 14.9201C6.12779 14.3339 5.55645 13.7134 4.98942 13.0885C5.01957 12.7216 4.96358 12.3562 4.86453 12.0036C4.92482 11.9592 4.98368 11.9148 5.04397 11.8718Z" fill="#45DCAE"/>
<path d="M6.41772 11.6224C7.04792 11.952 7.67236 12.2902 8.29394 12.6342C8.61263 13.1301 8.62842 13.7349 8.6155 14.3038C8.58966 15.1121 8.69301 15.9247 8.55664 16.7287C8.17192 16.3604 7.79869 15.9821 7.42976 15.6008C7.20008 15.3715 6.96753 15.1465 6.73641 14.9201C6.86848 14.139 6.68186 13.3493 6.82541 12.5711C6.92159 12.1928 6.66176 11.8761 6.41772 11.6224Z" fill="#65E3AC"/>
<path d="M8.29398 12.6342C8.96005 12.9839 9.60891 13.3651 10.2836 13.6976L10.2707 13.7334C10.0152 14.3282 10.153 14.9903 10.12 15.6166C10.0855 16.5209 10.2262 17.4267 10.1056 18.3281C9.58594 17.7979 9.08494 17.249 8.55668 16.7287C8.69305 15.9247 8.58969 15.1121 8.61553 14.3038C8.62845 13.7349 8.61266 13.1301 8.29398 12.6342Z" fill="#7BE9A8"/>
<path opacity="0.27" d="M96.5752 12.5439L96.6183 12.6528C96.6872 13.1143 96.6527 13.5829 96.6585 14.0473C96.6556 18.4801 96.6599 22.9128 96.6571 27.3456L96.5393 27.3427C96.5437 23.0547 96.5379 18.7681 96.5436 14.4801C96.5494 13.8352 96.5006 13.1874 96.5752 12.5439Z" fill="#1A1A1A"/>
<path d="M10.1199 15.6166C10.153 14.9903 10.0152 14.3282 10.2707 13.7334C10.9281 14.0358 11.5454 14.4142 12.1914 14.7395L12.1885 14.761C12.0952 15.479 12.0536 16.2028 12.0737 16.9265C12.1139 18.0587 11.9617 19.2095 12.2402 20.3231C12.2187 20.3475 12.1742 20.3948 12.1526 20.4191C11.5095 19.7857 10.8851 19.1322 10.2563 18.4844C10.219 18.4457 10.1429 18.3668 10.1056 18.3281C10.2262 17.4267 10.0855 16.5209 10.1199 15.6166Z" fill="#90EFA6"/>
<path d="M0.0368824 13.8366C0.199096 14.5532 0.246467 15.2884 0.219192 16.0207C0.312501 15.8832 0.407245 15.747 0.500553 15.6094C1.25707 15.575 2.01359 15.598 2.76867 15.6424C3.67878 15.694 4.59177 15.4632 5.49614 15.6424C6.14212 15.7828 6.78093 15.5177 7.42978 15.6008C7.79871 15.9821 8.17194 16.3604 8.55666 16.7287C9.08493 17.249 9.58592 17.7979 10.1056 18.3281C10.1429 18.3668 10.219 18.4457 10.2563 18.4844C8.86386 18.5933 7.46711 18.4758 6.07322 18.5116C5.35403 18.5288 4.63771 18.4256 3.91995 18.4786C2.75718 18.5847 1.59011 18.4729 0.425907 18.5331C0.361309 18.7065 0.296711 18.8813 0.232112 19.0548C0.18474 18.1261 0.196225 17.1902 0.032576 16.2716C-0.00618289 15.4604 0.0110431 14.6478 0.0368824 13.8366Z" fill="#00D8CB"/>
<path d="M12.0737 16.9265C12.0536 16.2028 12.0952 15.479 12.1885 14.761C12.7756 15.0648 13.3613 15.3715 13.9298 15.7069C13.7446 15.7699 13.5623 15.8416 13.38 15.9147C13.5594 16.9437 13.2709 17.9971 13.5465 19.0118C13.1144 19.4517 12.668 19.8774 12.2402 20.3231C11.9617 19.2095 12.1139 18.0587 12.0737 16.9265Z" fill="#A2F3A3"/>
<path d="M13.38 15.9147C13.5623 15.8416 13.7446 15.77 13.9298 15.7069C14.5628 16.0179 15.1744 16.3733 15.7945 16.7115C15.0882 17.5199 14.303 18.2522 13.5465 19.0118C13.2709 17.9971 13.5594 16.9437 13.38 15.9147Z" fill="#B1F9A1"/>
<path d="M0.0325918 16.2716C0.19624 17.1902 0.184756 18.1261 0.232128 19.0548C0.296726 18.8814 0.361324 18.7065 0.425922 18.5331C1.59012 18.4729 2.7572 18.5847 3.91996 18.4786C4.63772 18.4256 5.35404 18.5288 6.07324 18.5116C7.46712 18.4758 8.86388 18.5933 10.2563 18.4844C10.8851 19.1322 11.5095 19.7857 12.1526 20.4191L12.1282 20.4449C11.6947 20.8849 11.254 21.3192 10.8176 21.7577C10.3252 21.8982 9.81706 22.03 9.30027 21.9698C8.24373 21.8695 7.18145 21.8853 6.12204 21.9426C4.164 21.891 2.19304 21.7964 0.240741 21.9956C0.173272 21.0942 0.23787 20.1798 0.0297201 19.2912C-0.0104743 18.2866 0.00818802 17.2776 0.0325918 16.2716Z" fill="#00EFD0"/>
<path d="M15.7945 16.7115C17.4066 17.5686 19.0072 18.4471 20.6164 19.3099C21.0672 19.5549 21.5782 19.929 21.5696 20.498C21.5294 21.087 20.9667 21.4252 20.503 21.6832C18.9656 22.5115 17.4411 23.3628 15.9008 24.1883C14.9691 23.2711 14.0547 22.3353 13.1187 21.4209C12.7871 21.097 12.4541 20.7746 12.1282 20.4449L12.1526 20.4191C12.1742 20.3948 12.2187 20.3475 12.2402 20.3231C12.668 19.8774 13.1144 19.4517 13.5465 19.0118C14.303 18.2522 15.0883 17.5198 15.7945 16.7115Z" fill="#FFC55F"/>
<path d="M0.0297193 19.2912C0.237869 20.1798 0.173271 21.0941 0.24074 21.9956C2.19304 21.7964 4.164 21.891 6.12204 21.9426C7.18145 21.8853 8.24373 21.8695 9.30027 21.9698C9.81706 22.03 10.3252 21.8982 10.8176 21.7577C9.82711 22.7666 8.82799 23.767 7.83318 24.7716C7.33362 25.2675 6.8398 25.7706 6.34598 26.2722C5.77465 26.8397 5.21049 27.4144 4.65064 27.9934C4.03481 28.6168 3.41753 29.2388 2.8017 29.8622C2.13275 30.5272 1.46811 31.1965 0.806333 31.8701C0.206288 31.6494 -0.0248295 30.9701 0.00244532 30.381C0.0168005 26.6849 -0.0262657 22.9874 0.0297193 19.2912Z" fill="#00FFD3"/>
<path d="M10.8176 21.7577C11.254 21.3192 11.6947 20.8849 12.1282 20.4449C11.9244 20.905 11.5483 21.2418 11.2095 21.6001C10.9009 21.8767 11.0458 22.3209 11.0157 22.685C10.9769 23.5692 10.9726 24.4564 11.0186 25.3406C11.0286 25.8666 11.0688 26.4141 10.852 26.9085C9.93619 27.38 9.04473 27.9031 8.11739 28.3546C8.07433 27.7541 8.0126 27.1521 8.05997 26.5502C8.09586 25.9511 8.21214 25.2933 7.83316 24.7717C8.82797 23.767 9.82709 22.7667 10.8176 21.7577Z" fill="#E13A82"/>
<path d="M12.1282 20.4449C12.4541 20.7746 12.7871 21.097 13.1187 21.4209C12.7713 22.1977 12.9278 23.049 12.9307 23.8688C12.945 24.5008 12.9292 25.1357 12.8977 25.7677C12.8977 25.7792 12.8962 25.8035 12.8962 25.815C12.2847 26.1231 11.689 26.4585 11.0803 26.7695C11.0229 26.8039 10.9095 26.8741 10.8521 26.9085C11.0688 26.4141 11.0286 25.8666 11.0186 25.3406C10.9726 24.4564 10.9769 23.5692 11.0157 22.685C11.0458 22.3209 10.9009 21.8767 11.2095 21.6001C11.5483 21.2418 11.9244 20.905 12.1282 20.4449Z" fill="#EE3C6F"/>
<path d="M13.1187 21.4209C14.0547 22.3353 14.9691 23.2711 15.9007 24.1883C14.8916 24.6971 13.9255 25.2919 12.8976 25.7677C12.9292 25.1357 12.945 24.5008 12.9307 23.8688C12.9278 23.049 12.7713 22.1977 13.1187 21.4209Z" fill="#F93E60"/>
<path d="M6.34598 26.2722C6.83979 25.7706 7.33361 25.2675 7.83317 24.7717C8.21215 25.2933 8.09587 25.9511 8.05998 26.5502C8.01261 27.1521 8.07434 27.7541 8.1174 28.3546L8.12171 28.4019C7.58052 28.6111 7.10823 28.9522 6.59145 29.2087L6.57853 29.0683C6.47661 28.1367 6.61585 27.1822 6.34598 26.2722Z" fill="#D43894"/>
<path d="M4.6506 27.9934C5.21045 27.4144 5.77461 26.8397 6.34595 26.2722C6.61582 27.1822 6.47658 28.1367 6.5785 29.0683L6.58998 29.2374C6.41198 29.3119 6.23541 29.3907 6.06028 29.4724C5.98563 29.5111 5.83634 29.5899 5.76169 29.6301C5.42148 29.8278 5.08269 30.0313 4.72956 30.2076L4.72238 30.0629C4.73243 29.3721 4.79272 28.6756 4.6506 27.9934Z" fill="#CA36A1"/>
<path d="M2.80167 29.8622C3.4175 29.2388 4.03477 28.6168 4.65061 27.9934C4.79272 28.6756 4.73243 29.3721 4.72238 30.0629L4.71808 30.2392C4.2257 30.4226 3.8137 30.7594 3.32993 30.96C3.17633 30.9901 3.02274 31.0217 2.8677 31.0446C3.02704 30.6505 3.03709 30.2248 2.80167 29.8622Z" fill="#C035AF"/>
<path d="M0.806353 31.8701C1.46813 31.1965 2.13277 30.5272 2.80172 29.8622C3.03714 30.2248 3.02709 30.6505 2.86775 31.0446C3.02279 31.0217 3.17639 30.9901 3.32999 30.96C3.29553 31.0102 3.22807 31.1091 3.19361 31.1578C2.56342 31.2123 2.12559 31.7712 1.50832 31.8773C1.26859 31.9059 1.02599 31.893 0.784821 31.8916L0.806353 31.8701Z" fill="#B633BC"/>
<path d="M30.2101 18.1928C31.5021 16.2982 33.6295 14.9998 35.9105 14.7232C38.1873 14.4107 40.5056 15.2893 42.1866 16.8127C41.6741 17.2986 41.1832 17.8045 40.6822 18.3018C39.4735 17.1323 37.7221 16.5676 36.0569 16.8242C34.4492 17.0191 32.9548 17.9492 32.0705 19.3021C30.6235 21.4476 30.8403 24.5633 32.6361 26.445C34.4592 28.46 37.7652 28.8312 40.0333 27.3708C41.1947 26.6213 41.8536 25.2927 42.0014 23.9441C40.2917 23.9398 38.5835 23.9441 36.8752 23.9413C36.8809 23.2376 36.8838 22.5339 36.8738 21.8302C39.2639 21.8302 41.654 21.8288 44.0427 21.8316C44.281 23.5127 44.1174 25.2999 43.2833 26.8033C42.2411 28.7653 40.1396 30.0265 37.959 30.2744C35.8775 30.5725 33.697 30.0021 32.0145 28.7495C30.4642 27.6087 29.3416 25.8861 28.9885 23.9914C28.5851 21.9993 29.0488 19.8582 30.2101 18.1928Z" fill="white"/>
<path d="M79.0004 19.1316C79.019 17.8317 78.9587 16.529 79.0334 15.2305C79.7511 15.2363 80.4689 15.2348 81.1881 15.232C81.1881 20.1764 81.1838 25.1222 81.1895 30.0666C80.4689 30.0623 79.7483 30.0623 79.0276 30.0666C78.9616 26.4235 79.0176 22.7761 79.0004 19.1316Z" fill="white"/>
<path d="M97.3162 15.444C98.8579 15.338 100.41 15.4283 101.956 15.3968C103.278 15.3566 104.686 15.6332 105.708 16.5218C107.671 18.1599 107.692 21.5593 105.764 23.2318C104.85 24.0574 103.591 24.387 102.382 24.4042C101.429 24.4099 100.476 24.4042 99.5225 24.4056C99.5111 26.3146 99.5383 28.2236 99.5082 30.1325C98.7904 30.144 98.0727 30.1368 97.3549 30.1368C97.3578 25.7041 97.3535 21.2713 97.3564 16.8385C97.3506 16.3742 97.3851 15.9055 97.3162 15.444ZM99.524 17.5451C99.524 19.1201 99.5211 20.6952 99.5254 22.2688C100.575 22.2802 101.624 22.2802 102.675 22.2731C103.829 22.2688 104.861 21.2885 104.946 20.1448C105.1 18.8535 103.986 17.5465 102.672 17.5451C101.623 17.5393 100.573 17.5451 99.524 17.5451Z" fill="white"/>
<path d="M109.221 15.4154C109.949 15.3853 110.678 15.4011 111.406 15.3982C111.404 20.3139 111.396 25.2283 111.41 30.144C110.682 30.134 109.953 30.1397 109.225 30.1397C109.229 25.2311 109.237 20.324 109.221 15.4154Z" fill="white"/>
<path d="M113.644 21.8775C114.257 20.7668 115.363 19.9514 116.614 19.7206C117.916 19.4841 119.331 19.5859 120.501 20.2494C121.571 20.8198 122.296 21.9277 122.494 23.1129C122.656 24.215 122.6 25.3314 122.608 26.4421C122.604 27.6718 122.617 28.9015 122.601 30.1297C121.873 30.1469 121.144 30.1354 120.416 30.1383C120.422 29.6754 120.419 29.2124 120.425 28.7495C120.369 28.761 120.259 28.7854 120.203 28.7968C119.775 29.4962 119.114 30.0895 118.312 30.3102C116.955 30.7158 115.434 30.2759 114.376 29.373C112.913 28.1189 112.929 25.512 114.522 24.3684C116.193 23.1903 118.491 23.1186 120.356 23.8711C120.348 23.3924 120.237 22.9108 119.918 22.5396C118.846 21.191 116.434 21.2828 115.526 22.7775C114.91 22.4537 114.265 22.19 113.644 21.8775ZM115.602 26.8692C115.491 27.7248 116.401 28.268 117.153 28.2809C118.671 28.4772 120.096 27.2619 120.452 25.8388C119.478 25.1394 118.167 25.0563 117.033 25.3458C116.334 25.535 115.583 26.071 115.602 26.8692Z" fill="white"/>
<path d="M131.388 20.8628C131.529 20.602 131.537 20.0774 131.955 20.1505C132.716 20.2007 133.478 20.1849 134.242 20.215C132.099 25.0405 129.996 29.8846 127.883 34.7244C127.063 34.7258 126.245 34.7215 125.428 34.7272C126.22 33.0748 126.994 31.4123 127.779 29.7556C126.348 26.584 124.971 23.3866 123.527 20.2208C124.345 20.2122 125.164 20.2007 125.982 20.1763C126.705 21.803 127.397 23.4454 128.114 25.0763C128.379 25.6797 128.605 26.3045 128.942 26.8749C129.838 24.9058 130.563 22.8621 131.388 20.8628Z" fill="white"/>
<path d="M49.8494 20.2939C51.3308 20.185 52.8625 20.741 53.8889 21.8216C55.5656 23.5199 55.758 26.4249 54.3268 28.331C52.963 30.2343 50.2111 30.8735 48.1009 29.9118C46.43 29.2182 45.2457 27.5156 45.1682 25.7127C45.0232 24.0287 45.7783 22.2903 47.1492 21.2871C47.9287 20.7081 48.8804 20.3627 49.8494 20.2939ZM49.3197 22.3533C47.7765 22.8607 46.9698 24.718 47.4349 26.2286C47.7622 27.4153 48.8646 28.4084 50.1293 28.4156C51.1414 28.4715 52.1161 27.8868 52.6386 27.0369C53.4497 25.7614 53.2257 23.9284 52.1132 22.9008C51.3682 22.2272 50.2628 22.061 49.3197 22.3533Z" fill="white"/>
<path d="M61.0478 20.2939C62.7015 20.1792 64.4084 20.923 65.4032 22.2573C66.9248 24.2207 66.731 27.3264 64.8649 29.0032C62.97 30.8161 59.6654 30.7946 57.7964 28.9559C56.1728 27.4367 55.8297 24.8112 56.9049 22.885C57.706 21.3745 59.3439 20.3756 61.0478 20.2939ZM60.399 22.3748C58.8687 22.9165 58.1122 24.7811 58.596 26.2816C58.9276 27.4726 60.0702 28.4371 61.3335 28.417C62.2336 28.4514 63.0906 27.9656 63.6246 27.2605C64.572 26.0236 64.4457 24.0946 63.3461 22.9925C62.5939 22.2358 61.3909 22.0337 60.399 22.3748Z" fill="white"/>
<path d="M71.82 20.3268C73.0387 20.1219 74.3034 20.5862 75.1618 21.4605C75.1676 21.1839 75.1647 20.9073 75.1604 20.6321C75.8451 20.6364 76.5313 20.6378 77.2175 20.6307C77.2864 23.2792 77.2261 25.9319 77.2476 28.5818C77.2448 30.1168 77.2175 31.7692 76.3031 33.0791C74.925 35.0569 71.9319 35.3894 69.9351 34.2041C69.0709 33.6839 68.4264 32.8627 68.0015 31.9598C68.6288 31.7076 69.2561 31.4568 69.8748 31.1816C70.228 31.9913 70.9098 32.6965 71.797 32.8871C72.7731 33.0576 73.9431 32.8856 74.5804 32.0487C75.2192 31.2174 75.1948 30.1125 75.1532 29.1193C74.7197 29.6295 74.1627 30.0394 73.5081 30.2085C72.0625 30.6083 70.4663 30.1483 69.3523 29.1752C68.0158 28.0272 67.3426 26.1526 67.6842 24.4199C68.0316 22.3763 69.7356 20.5977 71.82 20.3268ZM71.975 22.286C70.3974 22.6127 69.549 24.3784 69.8131 25.8803C69.9509 26.9996 70.772 28.0487 71.8845 28.331C72.6784 28.5231 73.5914 28.407 74.223 27.8581C75.6097 26.7216 75.6887 24.4457 74.579 23.0957C73.9632 22.3447 72.9038 22.071 71.975 22.286Z" fill="white"/>
<path d="M83.8869 21.7371C85.2535 20.248 87.6838 19.8123 89.4409 20.8514C90.6151 21.5364 91.3559 22.7575 91.7937 24.0101C89.5385 24.9516 87.2704 25.8646 85.0238 26.8291C85.4415 27.7119 86.3229 28.3941 87.3249 28.4099C88.3973 28.5202 89.4667 27.9641 90.0366 27.0598C90.5979 27.4425 91.1721 27.8036 91.7449 28.1677C90.9812 29.1981 89.8672 29.9892 88.5968 30.24C86.8641 30.6198 84.9334 30.0408 83.7606 28.6965C82.048 26.7861 82.1413 23.5944 83.8869 21.7371ZM84.6305 25.1938C86.2196 24.622 87.7628 23.9298 89.326 23.292C88.9212 22.5253 88.037 22.0738 87.1771 22.1756C85.7085 22.3132 84.5573 23.7406 84.6305 25.1938Z" fill="white"/>
</svg>
