<?xml version="1.0" standalone="no"?>
<!DOCTYPE svg PUBLIC "-//W3C//DTD SVG 20010904//EN"
 "http://www.w3.org/TR/2001/REC-SVG-20010904/DTD/svg10.dtd">
<svg version="1.0" xmlns="http://www.w3.org/2000/svg"
 width="1080.000000pt" height="1080.000000pt" viewBox="0 0 1080.000000 1080.000000"
 preserveAspectRatio="xMidYMid meet">
<metadata>
Created by potrace 1.14, written by Peter Selinger 2001-2017
</metadata>
<g transform="translate(0.000000,1080.000000) scale(0.100000,-0.100000)"
fill="#000000" stroke="none">
<path d="M3870 10699 c-1129 -59 -2185 -603 -2899 -1494 -420 -524 -704 -1150
-816 -1799 -60 -348 -58 -307 -62 -1851 -5 -1734 -1 -1841 82 -2260 182 -911
685 -1735 1420 -2324 661 -530 1442 -825 2301 -871 233 -12 2775 -12 3008 0
1055 56 2007 497 2724 1263 650 693 1023 1576 1072 2539 12 238 12 2758 0
2996 -49 961 -420 1842 -1069 2536 -717 767 -1670 1210 -2727 1266 -209 11
-2821 11 -3034 -1z m2039 -1913 c495 -67 916 -215 1326 -466 202 -123 439
-373 585 -615 148 -245 256 -573 276 -840 l7 -85 -981 0 -982 0 -6 28 c-18 80
-29 112 -56 167 -85 168 -208 262 -433 331 -87 27 -97 28 -325 29 -257 0 -289
-5 -434 -65 -92 -39 -158 -101 -200 -190 -28 -58 -31 -75 -31 -160 0 -111 10
-134 88 -217 148 -156 426 -265 1067 -417 528 -126 624 -151 835 -221 409
-136 773 -303 945 -433 116 -88 288 -260 365 -364 154 -209 250 -435 301 -713
16 -83 19 -150 19 -395 -1 -284 -2 -300 -28 -425 -211 -991 -981 -1572 -2264
-1710 -229 -25 -790 -39 -983 -26 -538 39 -1057 206 -1506 484 -122 75 -179
120 -291 222 -299 276 -524 663 -624 1069 -30 124 -59 308 -59 376 l0 40 1005
0 1004 0 11 -42 c39 -152 102 -267 204 -375 68 -72 92 -90 170 -128 198 -95
332 -120 611 -112 224 6 330 28 482 101 109 53 169 105 211 183 36 69 44 105
44 189 -1 187 -201 352 -587 483 -66 22 -287 83 -490 135 -623 159 -1133 315
-1426 435 -167 69 -362 176 -463 255 -108 85 -266 250 -348 366 -166 234 -276
539 -309 858 -15 143 -6 467 15 581 77 410 279 774 576 1037 193 171 543 360
877 474 291 100 501 142 858 174 22 2 218 2 435 0 287 -2 426 -7 509 -18z"/>
</g>
</svg>
