<svg width="6" height="7" viewBox="0 0 6 7" fill="none" xmlns="http://www.w3.org/2000/svg">
<path d="M0.986096 6.09C0.678587 5.9568 0.385274 5.79298 0.110596 5.601C0.427728 5.10951 0.863078 4.70542 1.37679 4.42572C1.89051 4.14602 2.46617 3.99965 3.0511 4C4.2511 4 5.30959 4.6035 5.94009 5.5235C5.67067 5.7228 5.38189 5.8945 5.0781 6.036C4.84654 5.715 4.54199 5.45365 4.18955 5.27352C3.83711 5.09339 3.4469 4.99964 3.0511 5C2.1936 5 1.4361 5.432 0.986096 6.09ZM3.0001 3.5C2.77028 3.5 2.54272 3.45474 2.3304 3.36679C2.11808 3.27884 1.92516 3.14994 1.76266 2.98744C1.60016 2.82493 1.47125 2.63202 1.38331 2.4197C1.29536 2.20738 1.2501 1.97981 1.2501 1.75C1.2501 1.52019 1.29536 1.29262 1.38331 1.0803C1.47125 0.867984 1.60016 0.675066 1.76266 0.512563C1.92516 0.350061 2.11808 0.221157 2.3304 0.133211C2.54272 0.0452652 2.77028 -3.42448e-09 3.0001 0C3.46422 6.91606e-09 3.90934 0.184375 4.23753 0.512563C4.56572 0.840752 4.7501 1.28587 4.7501 1.75C4.7501 2.21413 4.56572 2.65925 4.23753 2.98744C3.90934 3.31563 3.46422 3.5 3.0001 3.5ZM3.0001 2.5C3.19901 2.5 3.38977 2.42098 3.53043 2.28033C3.67108 2.13968 3.7501 1.94891 3.7501 1.75C3.7501 1.55109 3.67108 1.36032 3.53043 1.21967C3.38977 1.07902 3.19901 1 3.0001 1C2.80118 1 2.61042 1.07902 2.46977 1.21967C2.32911 1.36032 2.2501 1.55109 2.2501 1.75C2.2501 1.94891 2.32911 2.13968 2.46977 2.28033C2.61042 2.42098 2.80118 2.5 3.0001 2.5Z" fill="black"/>
</svg>
