<svg width="40" height="40" viewBox="0 0 40 40" fill="none" xmlns="http://www.w3.org/2000/svg">
<path d="M35.1667 14.7917L21.1667 28.8333C21 29 20.8195 29.1183 20.625 29.1883C20.4306 29.2583 20.2223 29.2928 20 29.2917C19.7778 29.2917 19.5695 29.2572 19.375 29.1883C19.1806 29.1194 19 29.0011 18.8334 28.8333L4.79171 14.7917C4.40282 14.4028 4.20837 13.9167 4.20837 13.3333C4.20837 12.75 4.41671 12.25 4.83337 11.8333C5.25004 11.4167 5.73615 11.2083 6.29171 11.2083C6.84726 11.2083 7.33337 11.4167 7.75004 11.8333L20 24.0833L32.25 11.8333C32.6389 11.4444 33.1184 11.25 33.6884 11.25C34.2584 11.25 34.7512 11.4583 35.1667 11.875C35.5834 12.2917 35.7917 12.7778 35.7917 13.3333C35.7917 13.8889 35.5834 14.375 35.1667 14.7917Z" fill="#A4A4A4"/>
</svg>
