<svg width="17" height="17" viewBox="0 0 17 17" fill="none" xmlns="http://www.w3.org/2000/svg">
<path d="M11.4722 12.7377L11.7147 12.7679L11.8876 12.5951L13.2631 11.2195C13.2635 11.2192 13.2639 11.2188 13.2642 11.2184C13.3807 11.1038 13.5279 11.0253 13.6881 10.9924C13.8484 10.9596 14.0148 10.9738 14.1671 11.0335C14.1675 11.0336 14.1678 11.0337 14.1682 11.0339L15.8422 11.7022C15.8425 11.7024 15.8429 11.7025 15.8433 11.7027C15.9966 11.7652 16.1281 11.8716 16.2212 12.0085C16.3142 12.1453 16.3648 12.3063 16.3667 12.4716V15.5422C16.3656 15.6542 16.3419 15.7649 16.2971 15.8676C16.2521 15.9708 16.1866 16.0639 16.1047 16.1411C16.0228 16.2184 15.926 16.2783 15.8203 16.3172C15.7155 16.3558 15.6039 16.3729 15.4923 16.3676C9.77372 16.011 6.37533 13.4242 4.33657 10.4828C2.28249 7.51937 1.5917 4.16783 1.37167 2.30063C1.35888 2.18397 1.37084 2.06593 1.40677 1.95419C1.44284 1.84201 1.50225 1.73874 1.5811 1.65117C1.65995 1.5636 1.75644 1.49372 1.86424 1.44612C1.97204 1.39853 2.08869 1.37429 2.20652 1.37502L2.20652 1.37503H2.20959H5.17955C5.34466 1.37564 5.50581 1.42558 5.64235 1.51842C5.77906 1.61139 5.88484 1.74313 5.94607 1.8967L5.94616 1.89692L6.61659 3.57606L6.61657 3.57607L6.61794 3.57942C6.67941 3.7302 6.6951 3.89575 6.66303 4.05538C6.63099 4.21491 6.55269 4.36147 6.43789 4.47679C6.43781 4.47686 6.43773 4.47694 6.43766 4.47702L5.06055 5.85413L4.88271 6.03197L4.91948 6.28077L5.4141 6.20768C4.91948 6.28077 4.91951 6.28102 4.91955 6.28129L4.91965 6.28194L4.9199 6.2836L4.92064 6.28839L4.92309 6.30375C4.92518 6.31652 4.92818 6.33429 4.93223 6.35676C4.94032 6.40169 4.95258 6.46547 4.96994 6.54559C5.00465 6.70574 5.05989 6.93181 5.14329 7.20369C5.30972 7.74619 5.59046 8.47823 6.04907 9.2347C6.97137 10.756 8.6209 12.3821 11.4722 12.7377Z" stroke="#9CA4B8"/>
</svg>
