<svg width="29" height="30" viewBox="0 0 29 30" fill="none" xmlns="http://www.w3.org/2000/svg">
<path d="M23.9023 12.6208V10.8264H1.69922V15.3125C1.69922 19.4697 3.77617 23.1758 6.88512 25.2417H18.6598C19.4233 24.7343 20.1794 24.1295 20.8029 23.4473H23.0527C26.3317 23.4473 29 20.6295 29 17.1667V12.6208H23.9023ZM27.3008 17.1667C27.3008 19.6403 25.395 21.6528 23.0527 21.6528H22.128C23.2389 19.8376 23.9023 17.6311 23.9023 15.3125V14.4153H27.3008V17.1667Z" fill="#0099FF"/>
<path d="M9.06647 0L8.12392 1.49303C8.46161 1.73049 8.65492 2.11247 8.65492 2.54098C8.65492 2.96949 8.46161 3.35146 8.12392 3.58893C7.31747 4.15669 6.83625 5.10648 6.83625 6.12985C6.83625 7.15321 7.31747 8.103 8.12392 8.67076L9.06642 7.17773C8.72873 6.94027 8.53541 6.5583 8.53541 6.12979C8.53541 5.70127 8.72873 5.3193 9.06642 5.08184C9.87292 4.51414 10.3541 3.56434 10.3541 2.54092C10.3541 1.51755 9.87292 0.567759 9.06647 0Z" fill="#0099FF"/>
<path d="M13.3145 0L12.372 1.49303C12.7097 1.73049 12.903 2.11247 12.903 2.54098C12.903 2.96949 12.7097 3.35146 12.372 3.58893C11.5655 4.15669 11.0843 5.10648 11.0843 6.12985C11.0843 7.15321 11.5655 8.103 12.372 8.67076L13.3145 7.17773C12.9768 6.94027 12.7835 6.5583 12.7835 6.12979C12.7835 5.70127 12.9768 5.3193 13.3145 5.08184C14.121 4.51414 14.6022 3.56434 14.6022 2.54092C14.6022 1.51755 14.121 0.567759 13.3145 0Z" fill="#0099FF"/>
<path d="M17.5626 0L16.62 1.49303C16.9577 1.73049 17.151 2.11247 17.151 2.54098C17.151 2.96949 16.9577 3.35146 16.62 3.58893C15.8136 4.15669 15.3323 5.10648 15.3323 6.12985C15.3323 7.15321 15.8136 8.103 16.62 8.67076L17.5625 7.17773C17.2248 6.94027 17.0315 6.5583 17.0315 6.12979C17.0315 5.70127 17.2248 5.3193 17.5625 5.08184C18.369 4.51414 18.8502 3.56434 18.8502 2.54092C18.8502 1.51755 18.369 0.567759 17.5626 0Z" fill="#0099FF"/>
<path d="M0 26.4111C0 28.3932 1.52154 30 3.39844 30H22.2031C24.08 30 25.6016 28.3932 25.6016 26.4111H0Z" fill="#0099FF"/>
</svg>
