<svg width="17" height="17" viewBox="0 0 17 17" fill="none" xmlns="http://www.w3.org/2000/svg">
<path fill-rule="evenodd" clip-rule="evenodd" d="M1.40067 11.6663C-0.753664 6.37921 3.13621 0.59375 8.845 0.59375H9.15263C10.168 0.59375 11.1734 0.79374 12.1115 1.1823C13.0495 1.57086 13.9019 2.14038 14.6199 2.85835C15.3378 3.57632 15.9074 4.42867 16.2959 5.36674C16.6845 6.30481 16.8845 7.31023 16.8845 8.32558C16.8845 10.6085 15.9776 12.7979 14.3633 14.4122C12.749 16.0264 10.5596 16.9333 8.27671 16.9333H0.782544C0.633639 16.9335 0.488368 16.8873 0.366806 16.8014C0.245245 16.7154 0.153393 16.5937 0.103945 16.4533C0.054496 16.3128 0.0498914 16.1605 0.0907672 16.0173C0.131643 15.8741 0.215981 15.7471 0.332128 15.654L2.221 14.1369C2.26139 14.1046 2.29022 14.06 2.30317 14.0099C2.31613 13.9598 2.31252 13.9069 2.29288 13.859L1.40067 11.6663ZM8.845 2.03125C4.15588 2.03125 0.961753 6.78171 2.73084 11.1239L3.624 13.3175C3.76009 13.6519 3.78463 14.0213 3.69399 14.3708C3.60334 14.7202 3.40234 15.0311 3.12088 15.2572L2.82475 15.4958H8.27671C10.1784 15.4958 12.0022 14.7404 13.3468 13.3957C14.6915 12.051 15.447 10.2273 15.447 8.32558C15.447 6.65622 14.7838 5.05523 13.6034 3.87482C12.423 2.6944 10.822 2.03125 9.15263 2.03125H8.845Z" fill="#9CA4B8"/>
</svg>
