<svg width="21" height="21" viewBox="0 0 21 21" fill="none" xmlns="http://www.w3.org/2000/svg">
<path d="M20.375 16.25H17.125V13.375H15.5V16.25H12.25V17.6875H15.5V20.5625H17.125V17.6875H20.375V16.25Z" fill="#0099FF"/>
<path d="M9 19.125H2.5V1.875H9V6.1875C9.00129 6.5684 9.1729 6.93337 9.47737 7.20271C9.78184 7.47205 10.1944 7.62386 10.625 7.625H15.5V10.5H17.125V6.1875C17.1279 6.09304 17.1076 5.99915 17.0655 5.9123C17.0234 5.82544 16.9606 5.74768 16.8813 5.68438L11.1938 0.653125C11.1222 0.582935 11.0343 0.527308 10.9361 0.490082C10.8379 0.452855 10.7318 0.434916 10.625 0.4375H2.5C2.06942 0.438638 1.65684 0.590454 1.35237 0.859791C1.0479 1.12913 0.876286 1.4941 0.875 1.875V19.125C0.876286 19.5059 1.0479 19.8709 1.35237 20.1402C1.65684 20.4095 2.06942 20.5614 2.5 20.5625H9V19.125ZM10.625 2.1625L15.175 6.1875H10.625V2.1625Z" fill="#0099FF"/>
</svg>
