<svg width="14" height="20" viewBox="0 0 14 20" fill="none" xmlns="http://www.w3.org/2000/svg">
<path d="M5.42692 1.9578H5.92692V1.4578V0.598435L13.3963 1.94799L13.388 18.0621L5.92692 19.4022V18.5246V18.025L5.42733 18.0246L1.29297 18.0212V1.9578H5.42692ZM1.66882 17.1461V17.6457L2.16842 17.6461L5.42652 17.6487L5.92692 17.6491V17.1487V10.5363C5.96517 10.6227 6.01299 10.704 6.06997 10.7781C6.23627 10.9945 6.50074 11.1695 6.83025 11.1695C7.15976 11.1695 7.42423 10.9945 7.59053 10.7781C7.75642 10.5623 7.84478 10.2855 7.84478 10C7.84478 9.7145 7.75639 9.43774 7.59052 9.22192C7.42426 9.00556 7.1598 8.83049 6.83025 8.83049C6.50071 8.83049 6.23625 9.00555 6.06997 9.2219C6.013 9.29603 5.96517 9.37735 5.92692 9.46374V2.83366V2.33366H5.42692H2.16882H1.66882V2.83366V17.1461Z" stroke="#9CA4B8"/>
</svg>
