<svg width="40" height="40" viewBox="0 0 40 40" fill="none" xmlns="http://www.w3.org/2000/svg">
<path d="M25.5 35C25.8978 35 26.2794 34.842 26.5607 34.5607C26.842 34.2794 27 33.8978 27 33.5C27 33.1022 26.842 32.7206 26.5607 32.4393C26.2794 32.158 25.8978 32 25.5 32H13C11.9391 32 10.9217 31.5786 10.1716 30.8284C9.42143 30.0783 9 29.0609 9 28V12C9 10.9391 9.42143 9.92172 10.1716 9.17157C10.9217 8.42143 11.9391 8 13 8H25.5C25.8978 8 26.2794 7.84196 26.5607 7.56066C26.842 7.27936 27 6.89782 27 6.5C27 6.10218 26.842 5.72064 26.5607 5.43934C26.2794 5.15804 25.8978 5 25.5 5H13C11.1435 5 9.36301 5.7375 8.05025 7.05025C6.7375 8.36301 6 10.1435 6 12V28C6 29.8565 6.7375 31.637 8.05025 32.9497C9.36301 34.2625 11.1435 35 13 35H25.5ZM27.482 12.398C27.6267 12.2643 27.7963 12.1604 27.9812 12.0922C28.1661 12.0241 28.3625 11.993 28.5594 12.0008C28.7563 12.0086 28.9497 12.0551 29.1286 12.1377C29.3075 12.2203 29.4683 12.3373 29.602 12.482L35.602 18.982C35.8581 19.2591 36.0003 19.6226 36.0003 20C36.0003 20.3774 35.8581 20.7409 35.602 21.018L29.602 27.518C29.3317 27.81 28.9566 27.9827 28.559 27.9981C28.1614 28.0134 27.774 27.8703 27.482 27.6C27.19 27.3297 27.0173 26.9546 27.0019 26.557C26.9866 26.1594 27.1297 25.772 27.4 25.48L31.076 21.498H15.5C15.1022 21.498 14.7206 21.34 14.4393 21.0587C14.158 20.7774 14 20.3958 14 19.998C14 19.6002 14.158 19.2186 14.4393 18.9373C14.7206 18.656 15.1022 18.498 15.5 18.498H31.074L27.398 14.516C27.2643 14.3713 27.1604 14.2017 27.0922 14.0168C27.0241 13.8319 26.993 13.6355 27.0008 13.4386C27.0086 13.2417 27.0551 13.0483 27.1377 12.8694C27.2203 12.6905 27.3373 12.5317 27.482 12.398Z" fill="black"/>
</svg>
