<svg width="40" height="40" viewBox="0 0 40 40" fill="none" xmlns="http://www.w3.org/2000/svg">
<path d="M20 3.33333C10.8 3.33333 3.33337 10.8 3.33337 20C3.33337 29.2 10.8 36.6667 20 36.6667C29.2 36.6667 36.6667 29.2 36.6667 20C36.6667 10.8 29.2 3.33333 20 3.33333ZM20 10C23.2167 10 25.8334 12.6167 25.8334 15.8333C25.8334 19.05 23.2167 21.6667 20 21.6667C16.7834 21.6667 14.1667 19.05 14.1667 15.8333C14.1667 12.6167 16.7834 10 20 10ZM20 33.3333C16.6167 33.3333 12.6167 31.9667 9.76671 28.5333C12.686 26.2429 16.2894 24.998 20 24.998C23.7107 24.998 27.314 26.2429 30.2334 28.5333C27.3834 31.9667 23.3834 33.3333 20 33.3333Z" fill="black"/>
</svg>
