<svg width="15" height="14" viewBox="0 0 15 14" fill="none" xmlns="http://www.w3.org/2000/svg">
<path d="M12.9976 1.99606C12.6799 1.68028 12.3028 1.42978 11.8877 1.25887C11.4726 1.08797 11.0276 1 10.5783 1C10.129 1 9.68407 1.08797 9.26897 1.25887C8.85386 1.42978 8.47671 1.68028 8.15907 1.99606L7.49983 2.6511L6.8406 1.99606C6.19898 1.3585 5.32874 1.00033 4.42135 1.00033C3.51395 1.00033 2.64372 1.3585 2.00209 1.99606C1.36046 2.63361 1 3.49831 1 4.39995C1 5.30158 1.36046 6.16629 2.00209 6.80384L7.49983 12.2667L12.9976 6.80384C13.3154 6.48821 13.5675 6.11345 13.7395 5.70099C13.9115 5.28852 14 4.84642 14 4.39995C14 3.95347 13.9115 3.51137 13.7395 3.09891C13.5675 2.68644 13.3154 2.31169 12.9976 1.99606Z" stroke="black" stroke-width="2" stroke-linecap="round" stroke-linejoin="round"/>
</svg>
