<svg width="85" height="35" fill="none" xmlns="http://www.w3.org/2000/svg"><path fill-rule="evenodd" clip-rule="evenodd" d="M23.75 15.395l.503.253c5.23 3.976-5.561 14.477-.308 18.063-3.503-1.088-6.182-3.06-6.88-5.042-1.065-3.034.812-6.425 2.303-10.33.781-2.044 2.549-3.112 4.386-2.953l-.004.009z" fill="#7424EC" stroke="#fff" stroke-width=".5" stroke-miterlimit="22.93"/><path fill-rule="evenodd" clip-rule="evenodd" d="M12.081 27.93c1.298 1.305 3.473.425 4.702-1.999 1.478-2.913 3.405-10.747 7.485-10.262-3.585-1.919-4.576-1.968-6.808-1.258-3.683 1.858-4.936 6.7-6.02 8.696-1.046 1.933-.432 3.338.648 4.821l-.007.002z" fill="#6647F4" stroke="#fff" stroke-width=".5" stroke-miterlimit="22.93"/><path fill-rule="evenodd" clip-rule="evenodd" d="M16.586 6.53l-3.83 14.654a4.985 4.985 0 01-.296.861c-1.392 4.324-.162 5.442 1.334 6.464-5.331-.725-8.504-4.43-8.402-7.922.007-.344.053-.687.136-1.02l3.83-14.653c1.458-5.583 8.694-3.973 7.229 1.62l-.001-.003z" fill="#517FFF" stroke="#fff" stroke-width=".5" stroke-miterlimit="22.93"/><path fill-rule="evenodd" clip-rule="evenodd" d="M43.234 10.632v8.005a1.299 1.299 0 01-.33.86c-.21.236-.501.39-.818.43a4.273 4.273 0 01-.74.074 4.429 4.429 0 01-.74-.075 1.348 1.348 0 01-.82-.432 1.33 1.33 0 01-.343-.857v-8.005l-.271-.255h-2.885l-.287.255v8.155c.024.905.348 1.777.92 2.482a4.158 4.158 0 002.252 1.416 8.84 8.84 0 002.174.254 8.469 8.469 0 002.13-.3 4.727 4.727 0 001.51-.704c.454.328.966.567 1.51.705.7.188 1.42.288 2.145.3a7.952 7.952 0 002.13-.286 4.128 4.128 0 002.284-1.383c.585-.7.919-1.575.947-2.484v-8.14l-.287-.255h-2.96l-.287.255v8.005a1.299 1.299 0 01-.33.86c-.21.236-.501.39-.817.43a4.265 4.265 0 01-.74.074 4.429 4.429 0 01-.74-.075 1.347 1.347 0 01-.812-.436 1.33 1.33 0 01-.336-.853v-8.005l-.287-.255H43.52l-.287.255v-.015zm19.83 12.277a12.89 12.89 0 002.884-.3 3.901 3.901 0 002.25-1.347 3.85 3.85 0 00.877-2.46l-.287-.255h-2.794l-.287.255c-.04.29-.173.56-.38.767a1.362 1.362 0 01-.768.387 9.7 9.7 0 01-1.51.135 9.901 9.901 0 01-1.51-.135 1.347 1.347 0 01-.817-.442 1.329 1.329 0 01-.331-.862v-.93h7.34a1.35 1.35 0 00.958-.337 1.33 1.33 0 00.446-.907V14.14a3.97 3.97 0 00-.913-2.495 4.023 4.023 0 00-2.289-1.373 13.83 13.83 0 00-2.884-.3 10.25 10.25 0 00-2.9.345 4.322 4.322 0 00-2.28 1.494 4.268 4.268 0 00-.922 2.554v4.422a3.94 3.94 0 00.916 2.482 3.992 3.992 0 002.286 1.356c.952.208 1.925.308 2.9.3l.015-.016zm2.643-7.495h-5.301V14.29a1.3 1.3 0 01.334-.85c.211-.234.5-.385.814-.425a7.166 7.166 0 011.51-.134 7.029 7.029 0 011.51.134c.314.04.603.19.814.425.21.234.33.536.334.85v1.14l-.015-.016zm6.75-9.384l-.286.27v12.487a3.97 3.97 0 00.928 2.48 4.023 4.023 0 002.289 1.358c1.907.4 3.877.4 5.784 0a4.01 4.01 0 002.282-1.359 3.955 3.955 0 00.92-2.479v-4.242a3.94 3.94 0 00-.916-2.482 3.993 3.993 0 00-2.286-1.356 12.985 12.985 0 00-2.885-.315H75.63V6.285l-.287-.27-2.884.015zm5.83 7.21a6.972 6.972 0 011.51.135c.316.04.606.19.82.424.213.233.335.535.343.85v4.018c-.007.317-.129.62-.342.857-.213.236-.504.39-.82.432a8.105 8.105 0 01-1.51.12 8.21 8.21 0 01-1.511-.12 1.347 1.347 0 01-.811-.436 1.33 1.33 0 01-.337-.853V13.24h2.658z" fill="#fff"/></svg>