<svg width="31" height="23" viewBox="0 0 31 23" fill="none" xmlns="http://www.w3.org/2000/svg">
<path d="M25.1776 23C24.5111 23 23.9679 22.4511 23.9679 21.7775V20.555H25.1776C27.1059 20.555 27.597 19.8924 27.597 19.8924V21.7775C27.597 22.4511 27.0539 23 26.3873 23H25.1776Z" fill="#0099FF"/>
<path d="M4.61255 23C3.946 23 3.40284 22.4511 3.40284 21.7775V19.8924C3.40284 19.8924 3.89398 20.555 5.82226 20.555H7.03197V21.7775C7.03197 22.4511 6.48881 23 5.82226 23H4.61255Z" fill="#0099FF"/>
<path d="M31 10.1638C31 8.60264 29.7467 7.33614 28.2019 7.33614C27.0019 7.33614 25.9858 8.10386 25.589 9.17722L24.2619 12.1809C24.1627 12.1185 20.1501 10.8447 15.575 10.8447C10.9999 10.8447 6.82881 12.1247 6.72719 12.1882L5.4703 9.37037C5.13038 8.19922 4.06825 7.33736 2.79806 7.33736C1.25326 7.33736 0 8.60264 0 10.165C0 11.4645 0.87341 12.5476 2.0553 12.8789L2.57305 17.3765C3.11984 19.2848 5.82233 19.3325 5.82233 19.3325H25.1777C25.1777 19.3325 27.8802 19.2848 28.427 17.3741L28.9447 12.8765C30.1254 12.5464 31 11.4633 31 10.1638Z" fill="#0099FF"/>
<path d="M2.79819 5.86919C4.62727 5.86919 6.26884 7.08924 6.83136 8.84963L7.44347 10.2249C8.62777 9.7934 12.886 9.37775 15.5763 9.37775C18.1929 9.37775 22.3906 9.76406 23.552 10.1919L24.2475 8.61614C24.8778 6.97066 26.4613 5.86919 28.2033 5.86919C28.3315 5.86919 28.4537 5.89609 28.5807 5.90709C28.5807 5.89976 28.5819 5.8912 28.5819 5.88386C28.5819 2.63447 25.9762 0 22.7596 0C22.3556 0 8.64713 0 8.24309 0C5.02768 0 2.42076 2.63325 2.42076 5.88386C2.42076 5.8912 2.42197 5.89976 2.42197 5.90709C2.54778 5.89731 2.66996 5.86919 2.79819 5.86919Z" fill="#0099FF"/>
</svg>
