<svg width="13" height="13" viewBox="0 0 13 13" fill="none" xmlns="http://www.w3.org/2000/svg">
<path fill-rule="evenodd" clip-rule="evenodd" d="M7.31252 1.08331C8.04669 1.08338 8.77021 1.25901 9.42271 1.59556C10.0752 1.93212 10.6378 2.41983 11.0634 3.01801C11.4891 3.61619 11.7656 4.3075 11.8697 5.03425C11.9739 5.76101 11.9027 6.50213 11.6622 7.1958C11.4217 7.88946 11.0188 8.51555 10.4871 9.02183C9.9554 9.52811 9.31034 9.8999 8.60574 10.1062C7.90113 10.3125 7.15741 10.3472 6.43663 10.2076C5.71585 10.068 5.0389 9.75808 4.46226 9.30365L2.4841 11.2818C2.38194 11.3805 2.24511 11.4351 2.10309 11.4338C1.96107 11.4326 1.82521 11.3756 1.72478 11.2752C1.62435 11.1748 1.56738 11.0389 1.56615 10.8969C1.56492 10.7549 1.61951 10.6181 1.71818 10.5159L3.69635 8.53773C3.16118 7.85881 2.82797 7.04295 2.73484 6.1835C2.6417 5.32405 2.79242 4.45574 3.16973 3.67795C3.54704 2.90015 4.1357 2.2443 4.86835 1.78544C5.601 1.32658 6.44803 1.08325 7.31252 1.08331ZM10.8333 5.68748C10.8333 4.7537 10.4624 3.85816 9.80212 3.19787C9.14184 2.53759 8.2463 2.16665 7.31252 2.16665C6.37873 2.16665 5.48319 2.53759 4.82291 3.19787C4.16263 3.85816 3.79168 4.7537 3.79168 5.68748C3.79168 6.62126 4.16263 7.5168 4.82291 8.17708C5.48319 8.83737 6.37873 9.20831 7.31252 9.20831C8.2463 9.20831 9.14184 8.83737 9.80212 8.17708C10.4624 7.5168 10.8333 6.62126 10.8333 5.68748Z" fill="black"/>
</svg>
