<svg width="19" height="19" viewBox="0 0 19 19" fill="none" xmlns="http://www.w3.org/2000/svg">
<path d="M9.5 1C4.8131 1 1 4.8131 1 9.5C1 14.1869 4.8131 18 9.5 18C14.1869 18 18 14.1869 18 9.5C18 4.8131 14.1869 1 9.5 1ZM5.25 8.225C5.25011 7.88674 5.3846 7.56237 5.62386 7.32326C5.74234 7.20487 5.88297 7.11097 6.03773 7.04692C6.1925 6.98288 6.35836 6.94994 6.52585 6.95C6.69334 6.95006 6.85918 6.9831 7.0139 7.04725C7.16862 7.1114 7.30919 7.20539 7.42759 7.32386C7.54598 7.44234 7.63988 7.58297 7.70393 7.73773C7.76797 7.8925 7.80091 8.05836 7.80085 8.22585C7.80074 8.56411 7.66625 8.88848 7.42699 9.12759C7.18772 9.3667 6.86326 9.50096 6.525 9.50085C6.18674 9.50074 5.86237 9.36625 5.62326 9.12699C5.38415 8.88772 5.24989 8.56326 5.25 8.225ZM6.1 13.75C6.1 13.75 6.95 11.2 9.5 11.2C12.05 11.2 12.9 13.75 12.9 13.75H6.1ZM12.4691 9.4881C12.2996 9.49243 12.1309 9.46278 11.9731 9.4009C11.8153 9.33902 11.6714 9.24617 11.5501 9.12781C11.4287 9.00946 11.3322 8.86799 11.2664 8.71177C11.2006 8.55554 11.1667 8.38772 11.1667 8.21819C11.1668 8.04866 11.2008 7.88086 11.2667 7.72468C11.3327 7.56849 11.4292 7.4271 11.5507 7.30882C11.6721 7.19055 11.816 7.09779 11.9739 7.03602C12.1318 6.97424 12.3004 6.94471 12.4699 6.94915C12.8009 6.95783 13.1154 7.09544 13.3464 7.33265C13.5774 7.56987 13.7066 7.88793 13.7065 8.21904C13.7064 8.55015 13.577 8.86812 13.3458 9.10518C13.1147 9.34225 12.8001 9.47965 12.4691 9.4881Z" stroke="#9CA4B8"/>
</svg>
