<svg width="11" height="11" viewBox="0 0 11 11" fill="none" xmlns="http://www.w3.org/2000/svg">
<path fill-rule="evenodd" clip-rule="evenodd" d="M6.31251 0.083313C7.04669 0.0833755 7.77021 0.25901 8.42271 0.595564C9.07521 0.932118 9.63776 1.41983 10.0634 2.01801C10.4891 2.6162 10.7656 3.3075 10.8697 4.03425C10.9739 4.76101 10.9027 5.50213 10.6622 6.1958C10.4217 6.88946 10.0188 7.51555 9.4871 8.02183C8.9554 8.52811 8.31034 8.8999 7.60574 9.10618C6.90113 9.31246 6.15741 9.34725 5.43663 9.20764C4.71585 9.06804 4.0389 8.75808 3.46227 8.30365L1.4841 10.2818C1.38194 10.3805 1.24511 10.4351 1.10309 10.4338C0.961066 10.4326 0.825209 10.3756 0.72478 10.2752C0.624351 10.1748 0.567385 10.0389 0.566151 9.89691C0.564917 9.75488 0.619513 9.61806 0.718182 9.5159L2.69635 7.53773C2.16118 6.85881 1.82797 6.04295 1.73484 5.1835C1.6417 4.32405 1.79242 3.45574 2.16973 2.67795C2.54704 1.90015 3.1357 1.2443 3.86835 0.785438C4.601 0.326579 5.44803 0.083255 6.31251 0.083313ZM9.83335 4.68748C9.83335 3.7537 9.4624 2.85816 8.80212 2.19787C8.14184 1.53759 7.2463 1.16665 6.31251 1.16665C5.37873 1.16665 4.48319 1.53759 3.82291 2.19787C3.16263 2.85816 2.79168 3.7537 2.79168 4.68748C2.79168 5.62126 3.16263 6.5168 3.82291 7.17709C4.48319 7.83737 5.37873 8.20831 6.31251 8.20831C7.2463 8.20831 8.14184 7.83737 8.80212 7.17709C9.4624 6.5168 9.83335 5.62126 9.83335 4.68748Z" fill="black"/>
</svg>
