<svg width="11" height="11" viewBox="0 0 11 11" fill="none" xmlns="http://www.w3.org/2000/svg">
<path fill-rule="evenodd" clip-rule="evenodd" d="M5.74638 1.0383e-08C6.48056 6.2558e-05 7.20408 0.175697 7.85658 0.512251C8.50907 0.848805 9.07162 1.33652 9.4973 1.9347C9.92297 2.53288 10.1994 3.22419 10.3036 3.95094C10.4077 4.67769 10.3366 5.41882 10.0961 6.11248C9.85557 6.80615 9.45266 7.43224 8.92096 7.93852C8.38927 8.4448 7.74421 8.81659 7.03961 9.02287C6.335 9.22915 5.59128 9.26393 4.8705 9.12433C4.14971 8.98472 3.47277 8.67477 2.89613 8.22033L0.917967 10.1985C0.815807 10.2972 0.678981 10.3518 0.536958 10.3505C0.394934 10.3493 0.259078 10.2923 0.158648 10.1919C0.0582191 10.0915 0.00125322 9.95562 1.90735e-05 9.81359C-0.00121507 9.67157 0.0533811 9.53474 0.15205 9.43258L2.13022 7.45442C1.59505 6.7755 1.26184 5.95963 1.1687 5.10019C1.07557 4.24074 1.22628 3.37243 1.6036 2.59463C1.98091 1.81684 2.56957 1.16098 3.30222 0.702125C4.03487 0.243266 4.8819 -5.8036e-05 5.74638 1.0383e-08ZM9.26722 4.60417C9.26722 3.67038 8.89627 2.77485 8.23599 2.11456C7.5757 1.45428 6.68017 1.08333 5.74638 1.08333C4.8126 1.08333 3.91706 1.45428 3.25678 2.11456C2.59649 2.77485 2.22555 3.67038 2.22555 4.60417C2.22555 5.53795 2.59649 6.43349 3.25678 7.09377C3.91706 7.75406 4.8126 8.125 5.74638 8.125C6.68017 8.125 7.5757 7.75406 8.23599 7.09377C8.89627 6.43349 9.26722 5.53795 9.26722 4.60417Z" fill="white"/>
</svg>
