<svg width="18" height="16" viewBox="0 0 18 16" fill="none" xmlns="http://www.w3.org/2000/svg">
<path d="M14.4445 15.4376C14.364 15.5356 14.2626 15.6145 14.1478 15.6686C14.033 15.7226 13.9077 15.7506 13.7808 15.7503C13.6704 15.751 13.561 15.7294 13.4592 15.6869C13.3573 15.6443 13.2651 15.5818 13.1879 15.5028L9.80833 12.1188C9.65032 11.9606 9.56157 11.7461 9.56157 11.5225C9.56157 11.2989 9.65032 11.0844 9.80833 10.9262C9.88652 10.8477 9.97944 10.7854 10.0818 10.7429C10.1841 10.7004 10.2938 10.6785 10.4046 10.6785C10.5154 10.6785 10.6251 10.7004 10.7274 10.7429C10.8297 10.7854 10.9227 10.8477 11.0009 10.9262L12.937 12.8748V0.843781C12.937 0.62 13.0259 0.405384 13.1842 0.247148C13.3424 0.0889105 13.557 1.39937e-05 13.7808 1.39937e-05C14.0046 1.39937e-05 14.2192 0.0889105 14.3774 0.247148C14.5357 0.405384 14.6246 0.62 14.6246 0.843781V12.8635L16.5618 10.9307C16.64 10.8524 16.7329 10.7902 16.8351 10.7478C16.9373 10.7054 17.0469 10.6836 17.1575 10.6836C17.2682 10.6836 17.3778 10.7054 17.48 10.7478C17.5822 10.7902 17.6751 10.8524 17.7532 10.9307C17.9112 11.0889 18 11.3034 18 11.527C18 11.7506 17.9112 11.965 17.7532 12.1233L14.4434 15.4376H14.4445ZM4.88186 0.31277C4.80126 0.214765 4.69991 0.135872 4.58513 0.0817871C4.47034 0.0277018 4.34498 -0.000227712 4.21809 1.39937e-05C4.10772 -0.000629887 3.99834 0.0209523 3.89648 0.0634742C3.79462 0.105996 3.70236 0.168588 3.62521 0.247519L0.246763 3.63159C0.0887526 3.78979 0 4.00425 0 4.22785C0 4.45145 0.0887526 4.6659 0.246763 4.82411C0.324949 4.90262 0.41787 4.96491 0.520192 5.00742C0.622515 5.04993 0.732224 5.07181 0.843024 5.07181C0.953825 5.07181 1.06353 5.04993 1.16586 5.00742C1.26818 4.96491 1.3611 4.90262 1.43929 4.82411L3.37433 2.8767V14.9066C3.37433 15.1303 3.46322 15.345 3.62146 15.5032C3.7797 15.6614 3.99431 15.7503 4.21809 15.7503C4.44187 15.7503 4.65649 15.6614 4.81473 15.5032C4.97296 15.345 5.06186 15.1303 5.06186 14.9066V2.88682L6.99915 4.81961C7.07731 4.89795 7.17017 4.9601 7.27238 5.00251C7.3746 5.04491 7.48418 5.06674 7.59485 5.06674C7.70551 5.06674 7.81509 5.04491 7.91731 5.00251C8.01953 4.9601 8.11238 4.89795 8.19055 4.81961C8.34856 4.6614 8.43731 4.44695 8.43731 4.22335C8.43731 3.99975 8.34856 3.78529 8.19055 3.62709L4.88073 0.311645L4.88186 0.31277Z" fill="#0099FF"/>
</svg>
