<svg width="14" height="15" viewBox="0 0 14 15" fill="none" xmlns="http://www.w3.org/2000/svg">
<path d="M1 3.66667H2.33333M2.33333 3.66667H13M2.33333 3.66667V13C2.33333 13.3536 2.47381 13.6928 2.72386 13.9428C2.97391 14.1929 3.31304 14.3333 3.66667 14.3333H10.3333C10.687 14.3333 11.0261 14.1929 11.2761 13.9428C11.5262 13.6928 11.6667 13.3536 11.6667 13V3.66667H2.33333ZM4.33333 3.66667V2.33333C4.33333 1.97971 4.47381 1.64057 4.72386 1.39052C4.97391 1.14048 5.31304 1 5.66667 1H8.33333C8.68696 1 9.02609 1.14048 9.27614 1.39052C9.52619 1.64057 9.66667 1.97971 9.66667 2.33333V3.66667M5.66667 7V11M8.33333 7V11" stroke="#777E90" stroke-linecap="round" stroke-linejoin="round"/>
</svg>
