<svg width="18" height="19" viewBox="0 0 18 19" fill="none" xmlns="http://www.w3.org/2000/svg">
<path d="M16.6538 4.55107C13.9613 0.40001 8.46392 -0.83409 4.20066 1.7463C0.0496031 4.32669 -1.29669 9.93623 1.39589 14.0873L1.62028 14.4239L0.722748 17.7896L4.08847 16.8921L4.42505 17.1164C5.88353 17.9018 7.4542 18.3505 9.02487 18.3505C10.7077 18.3505 12.3906 17.9018 13.8491 17.0043C18.0001 14.3117 19.2342 8.81432 16.6538 4.55107ZM14.2978 13.1898C13.8491 13.8629 13.2881 14.3117 12.5028 14.4239C12.054 14.4239 11.4931 14.6482 9.24925 13.7507C7.34201 12.8532 5.77134 11.3947 4.64943 9.71185C3.97628 8.92651 3.63971 7.9168 3.52752 6.90708C3.52752 6.00955 3.86409 5.22422 4.42505 4.66326C4.64943 4.43888 4.87381 4.32669 5.09819 4.32669H5.65915C5.88353 4.32669 6.10791 4.32669 6.2201 4.77545C6.44448 5.33641 7.00544 6.6827 7.00544 6.79489C7.11763 6.90708 7.11763 7.13146 7.00544 7.24365C7.11763 7.46803 7.00544 7.69241 6.89325 7.80461C6.78105 7.9168 6.66886 8.14118 6.55667 8.25337C6.33229 8.36556 6.2201 8.58994 6.33229 8.81432C6.78105 9.48747 7.34201 10.1606 7.90296 10.7216C8.57611 11.2825 9.24925 11.7313 10.0346 12.0679C10.259 12.18 10.4834 12.18 10.5955 11.9557C10.7077 11.7313 11.2687 11.1703 11.4931 10.9459C11.7175 10.7216 11.8296 10.7216 12.054 10.8338L13.8491 11.7313C14.0735 11.8435 14.2978 11.9557 14.41 12.0679C14.5222 12.4044 14.5222 12.8532 14.2978 13.1898Z" fill="#5EB262"/>
</svg>
