<svg width="30" height="23" viewBox="0 0 30 23" fill="none" xmlns="http://www.w3.org/2000/svg">
<path d="M15.0001 15.7824C13.0244 15.7824 11.4172 17.4013 11.4172 19.3912C11.4172 21.3811 13.0245 23 15.0001 23C16.9757 23 18.583 21.3811 18.583 19.3912C18.583 17.4013 16.9757 15.7824 15.0001 15.7824Z" fill="#0099FF"/>
<path d="M23.6461 11.6389C18.8786 6.8369 11.1212 6.8369 6.35371 11.6389C5.08832 12.9135 5.08832 14.9874 6.35371 16.2619C6.96671 16.8794 7.78175 17.2194 8.64859 17.2194C9.51548 17.2194 10.3305 16.8794 10.9434 16.2619C12.0269 15.1706 13.4675 14.5695 14.9999 14.5695C16.5323 14.5695 17.9728 15.1706 19.0564 16.2619C19.6694 16.8792 20.4844 17.2194 21.3512 17.2194C22.2181 17.2194 23.0332 16.8794 23.6461 16.2619C24.9115 14.9873 24.9115 12.9135 23.6461 11.6389Z" fill="#0099FF"/>
<path d="M29.0494 5.86158C25.2967 2.08173 20.3072 0 15 0C9.69281 0 4.70332 2.08173 0.950625 5.86158C0.337559 6.47903 0 7.29991 0 8.17307C0 9.04624 0.337559 9.86718 0.950625 10.4846C1.58332 11.1219 2.41424 11.4405 3.24545 11.4404C4.07643 11.4404 4.9077 11.1217 5.54033 10.4846C8.06279 7.94385 11.4224 6.54454 15.0001 6.54454C18.5777 6.54454 21.9373 7.94373 24.4598 10.4846C25.0727 11.1019 25.8878 11.4419 26.7546 11.4419C27.6215 11.4419 28.4365 11.1019 29.0494 10.4846C29.6624 9.86718 30 9.0463 30 8.17307C30 7.29991 29.6624 6.47903 29.0494 5.86158Z" fill="#0099FF"/>
</svg>
